<svg id="_24-hours" data-name="24-hours" xmlns="http://www.w3.org/2000/svg" width="18" height="18" viewBox="0 0 18 18">
  <g id="Group_12370" data-name="Group 12370">
    <g id="Group_12369" data-name="Group 12369">
      <path id="Path_18381" data-name="Path 18381" d="M325.7,278.006h-.9v-5.7a.3.3,0,0,0-.546-.172l-4.2,6a.3.3,0,0,0,.246.472h3.9v.9a.3.3,0,0,0,.6,0v-.9h.9a.3.3,0,0,0,0-.6Zm-1.5,0h-3.324l3.324-4.748Z" transform="translate(-308.003 -261.806)" fill="#121D55"/>
      <path id="Path_18382" data-name="Path 18382" d="M212.5,279.187h-3.552l3.3-3.888a.322.322,0,0,0,.021-.028,2.087,2.087,0,0,0-.471-2.833,2.4,2.4,0,0,0-3.8,1.949.3.3,0,1,0,.6,0,1.8,1.8,0,0,1,2.85-1.462,1.481,1.481,0,0,1,.33,2l-3.709,4.369a.3.3,0,0,0,.229.494h4.2a.3.3,0,0,0,0-.6Z" transform="translate(-200.2 -261.787)" fill="#121D55"/>
      <path id="Path_18383" data-name="Path 18383" d="M8.107,15.906a.3.3,0,0,0-.288-.311h0A7.491,7.491,0,0,1,.61,8.4H1.8a.3.3,0,1,0,0-.6H.61A7.482,7.482,0,0,1,7.8.611V1.5a.3.3,0,0,0,.6,0V.611a7.487,7.487,0,0,1,7.186,7.05l-1.17-1.17a.3.3,0,0,0-.424.424L15.666,8.59a.3.3,0,0,0,.118.086l.036.009a.3.3,0,0,0,.064.015H15.9a.289.289,0,0,0,.067-.013L16,8.68a.3.3,0,0,0,.108-.068l1.7-1.7a.3.3,0,0,0-.424-.424l-1.2,1.2A8.087,8.087,0,0,0,8.121,0C8.114,0,8.107,0,8.1,0s-.014,0-.021,0A8.086,8.086,0,0,0,0,8.079c0,.007,0,.014,0,.021s0,.014,0,.021A8.092,8.092,0,0,0,7.8,16.194h.011A.3.3,0,0,0,8.107,15.906Z" fill="#121D55"/>
      <path id="Path_18384" data-name="Path 18384" d="M157.979,106.266a.3.3,0,0,0-.424,0l-3.224,3.223a.94.94,0,0,0-.765,0l-1.526-1.526a.3.3,0,0,0-.424.424l1.523,1.523a.9.9,0,1,0,1.62,0l3.221-3.221A.3.3,0,0,0,157.979,106.266Zm-3.818,4.243h0a.307.307,0,0,1-.424,0,.3.3,0,1,1,.424,0Z" transform="translate(-145.848 -102.196)" fill="#121D55"/>
    </g>
  </g>
</svg>
