<svg xmlns="http://www.w3.org/2000/svg" width="20.246" height="13.213" viewBox="0 0 20.246 13.213">
  <path id="ambulance-facing-right" d="M19.913,18,17.74,14.13a1.448,1.448,0,0,0-1.161-.68H1.507a.905.905,0,0,0-.9.9v3.14H.3a.3.3,0,1,0,0,.6H.6v.326H.3a.3.3,0,1,0,0,.6H.6v3.555a.905.905,0,0,0,.9.9H3.572a1.744,1.744,0,0,0,3.417,0H13.86a1.744,1.744,0,0,0,3.417,0h2.065a.905.905,0,0,0,.9-.9v-3.3A3.02,3.02,0,0,0,19.913,18Zm-1-.552H13.339V15.234h4.329ZM5.281,24.277a1.141,1.141,0,1,1,1.141-1.141A1.142,1.142,0,0,1,5.281,24.277Zm10.288,0a1.141,1.141,0,1,1,1.141-1.141A1.142,1.142,0,0,1,15.569,24.277Zm3.774-1.394h-2.05a1.741,1.741,0,0,0-3.446,0H7a1.741,1.741,0,0,0-3.446,0H1.507a.3.3,0,0,1-.3-.3v-.737H3.391a.151.151,0,0,0,0-.3H1.206V14.355a.3.3,0,0,1,.3-.3H16.579a.843.843,0,0,1,.635.372l.116.206H13.037a.3.3,0,0,0-.3.3v2.819a.3.3,0,0,0,.3.3H19.25l.137.244a2.447,2.447,0,0,1,.257.981v2.265H17.459a.151.151,0,1,0,0,.3h2.185v.737A.3.3,0,0,1,19.342,22.883Zm-5.966-1.189a.151.151,0,0,1-.151.151H7.687a.151.151,0,0,1,0-.3h5.539A.151.151,0,0,1,13.376,21.694Zm-.088-8.369h1.985a.829.829,0,1,0,0-1.658H13.288a.829.829,0,1,0,0,1.658Zm0-1.055h1.985a.226.226,0,1,1,0,.452H13.288a.226.226,0,1,1,0-.452ZM7.883,19.2v-.423h.423a.6.6,0,0,0,.6-.6V17.061a.6.6,0,0,0-.6-.6H7.883v-.423a.6.6,0,0,0-.6-.6H6.166a.6.6,0,0,0-.6.6v.423H5.14a.6.6,0,0,0-.6.6v1.114a.6.6,0,0,0,.6.6h.423V19.2a.6.6,0,0,0,.6.6H7.28A.6.6,0,0,0,7.883,19.2Zm-.6,0H6.166V18.175H5.14V17.061H6.166V16.035H7.28v1.025H8.306v1.114H7.28Zm7.239-2.067V15.551a.151.151,0,1,1,.3,0v1.583a.151.151,0,1,1-.3,0Z" transform="translate(0 -11.667)" fill="#121D55"/>
</svg>
