<svg xmlns="http://www.w3.org/2000/svg" width="17.514" height="22.615" viewBox="0 0 17.514 22.615">
  <g id="hose" transform="translate(-57.746)">
    <g id="Group_12372" data-name="Group 12372" transform="translate(61.946 0.746)">
      <g id="Group_12371" data-name="Group 12371">
        <path id="Path_18385" data-name="Path 18385" d="M164.153,19.677a8.287,8.287,0,0,0-4.932-2.788.331.331,0,1,0-.108.654,7.62,7.62,0,1,1-5.759,13.662.331.331,0,0,0-.392.534,8.282,8.282,0,0,0,11.191-12.063Z" transform="translate(-152.827 -16.885)" fill="#121D55"/>
      </g>
    </g>
    <g id="Group_12374" data-name="Group 12374" transform="translate(62.308 9.237)">
      <g id="Group_12373" data-name="Group 12373">
        <path id="Path_18386" data-name="Path 18386" d="M171.872,209.124a.332.332,0,0,0-.364.3,5.853,5.853,0,0,1-9.928,3.557.331.331,0,0,0-.465.472,6.516,6.516,0,0,0,11.051-3.96A.331.331,0,0,0,171.872,209.124Z" transform="translate(-161.017 -209.123)" fill="#121D55"/>
      </g>
    </g>
    <g id="Group_12376" data-name="Group 12376" transform="translate(67.985 2.551)">
      <g id="Group_12375" data-name="Group 12375">
        <path id="Path_18387" data-name="Path 18387" d="M295.025,63.381a6.506,6.506,0,0,0-5.064-5.625.331.331,0,0,0-.143.647,5.844,5.844,0,0,1,4.548,5.052.331.331,0,0,0,.329.294l.037,0A.331.331,0,0,0,295.025,63.381Z" transform="translate(-289.558 -57.748)" fill="#121D55"/>
      </g>
    </g>
    <g id="Group_12378" data-name="Group 12378" transform="translate(57.746)">
      <g id="Group_12377" data-name="Group 12377">
        <path id="Path_18388" data-name="Path 18388" d="M70.782,6.078a4.788,4.788,0,0,0-2.4-1.693.331.331,0,0,0-.2.633,4.121,4.121,0,0,1,2.061,1.457,4.086,4.086,0,1,1-3.6-1.627v.294a.331.331,0,1,0,.663,0V.331a.331.331,0,0,0-.663,0V.645H66.6l-.081,0h-.013l-.056,0h-.006l-.084.006-.037,0h-.008l-.152.014-.053.005L66,.7,65.961.7l-.089.012L65.816.72l-.094.014h-.009l-.046.007-.159.027-.136.025h-.006l-.046.009-.127.027-.136.031c-.069.016-.136.033-.2.05l-.1.028-.006,0L64.71.953l-.141.041-.151.047-.144.048-.144.051c-.253.093-.5.2-.742.314l-.179.089-.114.059-.019.01-.054.029-.067.037c-.063.035-.125.07-.186.107l-.171.1c-.065.041-.134.085-.219.141l-.113.077c-.108.075-.217.154-.324.236l-.156.123c-.051.041-.1.083-.149.123l-.038.032,0,0-.035.03-.028.025,0,0,0,0-.089.079c-.051.047-.1.094-.153.142l-.075.072-.015.014-.07.069a8.22,8.22,0,0,0-.562.622l-.07.087-.054.068-.069.09a8.281,8.281,0,0,0-1.059,1.859c-.022.054-.043.108-.064.162-.088.23-.167.466-.234.7-.016.057-.032.115-.046.171a8.244,8.244,0,0,0-.2,1.041v.006q-.012.1-.022.191l0,.028c0,.03-.006.059-.009.088-.006.07-.012.14-.016.208,0,.012,0,.024,0,.035q-.005.087-.009.175c0,.026,0,.051,0,.077,0,.081,0,.163,0,.244v2.71h-.618a.331.331,0,0,0-.331.331V13.55a.331.331,0,0,0,.331.331H58.3l.414,4.536a.331.331,0,0,0,.33.3h1.723a.331.331,0,0,0,.33-.3l.414-4.536h.228a.331.331,0,0,0,.332-.331V11.962a.331.331,0,0,0-.331-.331h-.618V8.921a5.86,5.86,0,0,1,5.521-5.843V4.184a4.747,4.747,0,1,0,4.135,1.894ZM60.47,18.056H59.352l-.381-4.174h1.88Zm.943-5.763v.926h-3v-.926h3Zm5.233-9.879-.057,0-.106.007-.072.006-.09.008-.077.009-.084.01-.079.011L66,2.479l-.081.013-.078.013-.081.015-.075.014-.082.017-.074.016-.082.02-.072.018-.082.022-.071.019-.081.024-.07.021-.081.026-.069.022-.081.028-.067.024-.081.03-.066.025-.08.032-.065.027-.079.034-.064.028L64.26,3l-.062.029-.078.038-.061.03-.078.04-.06.031-.077.042-.058.032-.077.044-.057.034-.076.046-.055.035-.075.048-.054.035-.075.05-.052.036-.075.053-.05.036-.074.055-.048.037-.074.058-.045.036-.075.061-.041.035L62.707,4l-.036.032-.079.07-.027.025-.085.08-.006.006q-.2.194-.388.405l-.026.029-.066.078-.033.039-.06.075-.036.045-.056.073-.038.049-.053.072-.038.052-.05.072-.038.055-.048.071-.038.057-.045.072-.037.059-.043.072-.036.061-.041.072-.035.063-.039.072-.034.065L61.155,6l-.033.066-.035.073-.032.068-.033.074-.03.069-.031.074-.029.071L60.9,6.57l-.027.072-.027.075-.026.074-.025.075-.024.075-.024.075-.023.076-.022.075-.021.078-.02.075-.019.079-.018.075c-.006.027-.012.054-.018.081s-.011.05-.016.075-.011.055-.016.082-.01.05-.014.075-.009.056-.014.084-.008.05-.012.075-.008.057-.012.086-.007.049-.01.074-.007.059-.01.088-.006.048-.008.073-.006.061-.008.092,0,.047-.006.07,0,.065-.006.1,0,.044,0,.066,0,.073,0,.109c0,.018,0,.037,0,.055q0,.082,0,.165v2.71h-1.1V8.92h0c0-.075,0-.149,0-.223,0-.023,0-.046,0-.069,0-.055,0-.11.008-.165,0-.023,0-.047,0-.07s0-.057.006-.085c0-.046.007-.092.012-.138l0-.016q.009-.086.019-.171V7.973a7.636,7.636,0,0,1,6.476-6.594H65.9q.174-.025.35-.041l.029,0,.136-.011.065,0H66.5l.093-.005.051,0V2.414Z" transform="translate(-57.746)" fill="#121D55"/>
      </g>
    </g>
    <g id="Group_12380" data-name="Group 12380" transform="translate(58.63 19.027)">
      <g id="Group_12379" data-name="Group 12379">
        <path id="Path_18389" data-name="Path 18389" d="M80.24,432.664a.331.331,0,0,0-.63.2.683.683,0,0,1,.042.19.618.618,0,0,1-1.237,0,4.535,4.535,0,0,1,.618-1.348l.024.041a.331.331,0,1,0,.571-.336c-.173-.294-.312-.506-.318-.515a.331.331,0,0,0-.555,0c-.01.015-.247.378-.487.812a3,3,0,0,0-.516,1.345,1.281,1.281,0,0,0,2.562,0A1.3,1.3,0,0,0,80.24,432.664Z" transform="translate(-77.753 -430.751)" fill="#121D55"/>
      </g>
    </g>
  </g>
</svg>
