<svg xmlns="http://www.w3.org/2000/svg" width="17" height="22.075" viewBox="0 0 17 22.075">
  <g id="policeman" transform="translate(-58.85)">
    <g id="Group_12382" data-name="Group 12382" transform="translate(58.85)">
      <g id="Group_12381" data-name="Group 12381">
        <path id="Path_18390" data-name="Path 18390" d="M75.3,15.566l-.008-.013-.057-.09-.032-.049-.041-.059-.054-.075-.016-.022-.012-.015-.068-.087-.024-.03-.07-.082-.029-.034-.06-.065-.045-.048-.035-.035a3.748,3.748,0,0,0-1.616-.964l-.032-.008-2.923-.543-.016,0a.716.716,0,0,0-.4.051.754.754,0,0,1-.169-.455v-.529a4.691,4.691,0,0,0,.537-.4A3.8,3.8,0,0,0,71.413,9.5a1,1,0,0,0,.957-1V7.747A1,1,0,0,0,72,6.972V5.238c1.057-.521,1.287-1.128,1.287-1.557A3.482,3.482,0,0,0,71.5,1.28a7.375,7.375,0,0,0-8.3,0,3.482,3.482,0,0,0-1.787,2.4c0,.428.23,1.036,1.287,1.557V6.972a1,1,0,0,0-.367.775V8.5a1,1,0,0,0,.957,1,3.8,3.8,0,0,0,1.279,2.506,4.691,4.691,0,0,0,.537.4v.529a.753.753,0,0,1-.169.455.715.715,0,0,0-.417-.049l-2.923.543-.032.008a3.748,3.748,0,0,0-1.615.964l-.036.036-.045.048-.061.066-.029.034-.07.083-.024.03-.068.087-.012.015-.016.022-.054.075-.041.059-.032.049-.057.09-.008.013a3.748,3.748,0,0,0-.545,1.955v.394a.323.323,0,0,0,.647,0v-.394a3.131,3.131,0,0,1,.137-.918,1.058,1.058,0,0,0,.661.232,1.077,1.077,0,0,0,.116-.006,1.059,1.059,0,0,0,.716-.391L61.479,16a1.066,1.066,0,0,0-.035-1.38c.093-.038.188-.072.285-.1l1.865-.346,1.48,2.071a.761.761,0,0,0,.621.321A.771.771,0,0,0,66,16.5l.1-.042.431.5-.621,4.464H61.84V18.8a.323.323,0,1,0-.647,0v2.623H59.9a.4.4,0,0,1-.4-.4v-1.6a.323.323,0,1,0-.647,0v1.6a1.051,1.051,0,0,0,1.05,1.05H74.8a1.051,1.051,0,0,0,1.05-1.05v-3.5A3.748,3.748,0,0,0,75.3,15.566Zm-14.329.03-.352.437a.419.419,0,0,1-.59.063l-.135-.109q.043-.077.091-.152v0c.027-.043.056-.084.085-.125l.027-.037q.039-.053.08-.1l.021-.027q.046-.057.1-.111l.029-.032c.032-.035.065-.07.1-.1l.009-.009a3.126,3.126,0,0,1,.406-.336l.071.057a.419.419,0,0,1,.063.59Zm12.812-.59.071-.057a3.122,3.122,0,0,1,.406.336l.009.009c.034.034.067.068.1.1l.029.032q.049.055.1.111l.021.027q.041.051.08.1l.027.037c.029.041.058.083.085.125v0q.048.075.091.152l-.135.109a.419.419,0,0,1-.59-.063l-.352-.437A.42.42,0,0,1,73.788,15.006Zm-3.862-.949h0l.085-.063a.068.068,0,0,1,.053-.012l.339.063-1.3,1.825a.118.118,0,0,1-.143.04l-.962-.409ZM67.35,15.175l-1.885-1.409a1.389,1.389,0,0,0,.286-.827v-.189a4.217,4.217,0,0,0,1.6.325h.007a4.219,4.219,0,0,0,1.6-.325v.189a1.389,1.389,0,0,0,.286.827Zm.63,1.023-.295.343h-.67L66.72,16.2l.63-.267ZM62.7,4.5c-.416-.256-.64-.539-.64-.819,0-.583.779-1.376,1.5-1.866a6.728,6.728,0,0,1,7.579,0c.724.49,1.5,1.283,1.5,1.866,0,.28-.224.563-.64.819V3.913a1,1,0,0,0-.752-.968,17.642,17.642,0,0,0-4.1-.574h0a14.3,14.3,0,0,0-3.717.568A1,1,0,0,0,62.7,3.9Zm1.122,1.136-.014-.009-.061-.04-.024-.017-.047-.034-.03-.024-.035-.028-.034-.03-.025-.023-.036-.037L63.5,5.377l0,0h5.43a.323.323,0,1,0,0-.647H63.344V3.9a.353.353,0,0,1,.257-.339,13.642,13.642,0,0,1,3.542-.544h0a16.983,16.983,0,0,1,3.943.554.352.352,0,0,1,.265.341v.815h-.867a.323.323,0,1,0,0,.647H71.2l0,0-.017.018-.036.037-.025.023-.034.03-.035.028-.03.024-.047.034-.024.017-.061.04-.014.009a3.192,3.192,0,0,1-.478.242l-.011.006a8.219,8.219,0,0,1-3.042.5,8.219,8.219,0,0,1-3.042-.5L64.3,5.878A3.192,3.192,0,0,1,63.819,5.637Zm.031.752v.63a1.8,1.8,0,0,0-.505-.168V6.1A3.271,3.271,0,0,0,63.85,6.388Zm7,0a3.27,3.27,0,0,0,.505-.29V6.85a1.8,1.8,0,0,0-.505.168Zm-5.862,5.131a3.174,3.174,0,0,1-1.073-2.345.323.323,0,0,0-.323-.317h-.257a.357.357,0,0,1-.357-.357V7.747a.355.355,0,0,1,.131-.276,1.174,1.174,0,0,1,.507.159l.005,0a.747.747,0,0,1,.074.054l.008.007.034.031.03.027.009.007.024.017.01.006.033.02h0l.035.017.01,0,.028.01.01,0,.037.009h0L64,7.852h.051l.038,0h0l.039-.006.011,0,.029-.007.011,0,.038-.014a.445.445,0,0,0,.275-.412V6.635a9.841,9.841,0,0,0,2.854.4,9.841,9.841,0,0,0,2.854-.4v.774a.445.445,0,0,0,.274.412l.038.014.011,0,.03.007.01,0a.439.439,0,0,0,.079.008h.05a.44.44,0,0,0,.076-.015l.01,0,.028-.01.01,0,.036-.017h0l.033-.02.01-.006.024-.017.009-.007.03-.027L71,7.7l.009-.008.032-.026,0,0,.036-.025.01-.006.033-.02,0,0,.038-.02.01,0,.034-.016,0,0,.04-.016.007,0,.038-.013h0l.042-.013h0a1.359,1.359,0,0,1,.25-.046.355.355,0,0,1,.131.276V8.5a.357.357,0,0,1-.357.357h-.257a.323.323,0,0,0-.323.317,3.174,3.174,0,0,1-1.073,2.345,3.527,3.527,0,0,1-4.723,0Zm.756,4.39a.118.118,0,0,1-.143-.04l-1.3-1.825.339-.063a.068.068,0,0,1,.053.012l.085.063h0L66.706,15.5Zm.814,5.518.59-4.241h.4l.59,4.241Zm8.242,0H73.507V18.8a.323.323,0,1,0-.647,0v2.623H68.8l-.621-4.464.431-.5.1.042a.771.771,0,0,0,.3.062.761.761,0,0,0,.621-.322l1.48-2.071,1.865.346c.1.029.192.063.285.1A1.068,1.068,0,0,0,73.221,16l.352.437a1.059,1.059,0,0,0,.716.391,1.078,1.078,0,0,0,.116.006,1.058,1.058,0,0,0,.661-.232,3.131,3.131,0,0,1,.137.918v3.5h0A.4.4,0,0,1,74.8,21.428Z" transform="translate(-58.85)" fill="#121D55"/>
      </g>
    </g>
    <g id="Group_12384" data-name="Group 12384" transform="translate(69.534 18.482)">
      <g id="Group_12383" data-name="Group 12383">
        <path id="Path_18391" data-name="Path 18391" d="M308.875,428.66h-1.7a.529.529,0,0,0-.528.528v.908a.529.529,0,0,0,.528.528h1.7a.529.529,0,0,0,.528-.528v-.908A.529.529,0,0,0,308.875,428.66Zm-1.585,1.317v-.671h1.466v.671Z" transform="translate(-306.643 -428.66)" fill="#121D55"/>
      </g>
    </g>
    <g id="Group_12386" data-name="Group 12386" transform="translate(62.406 18.481)">
      <g id="Group_12385" data-name="Group 12385">
        <path id="Path_18392" data-name="Path 18392" d="M143.569,428.659h-1.7a.529.529,0,0,0-.528.528v.908a.529.529,0,0,0,.528.528h1.7a.529.529,0,0,0,.528-.528v-.908A.529.529,0,0,0,143.569,428.659Zm-.118,1.317h-1.466v-.67h1.466Z" transform="translate(-141.337 -428.659)" fill="#121D55"/>
      </g>
    </g>
  </g>
</svg>
