<svg xmlns="http://www.w3.org/2000/svg" width="17.514" height="18.323" viewBox="0 0 17.514 18.323">
  <g id="user" transform="translate(-11.328)">
    <g id="Group_12366" data-name="Group 12366" transform="translate(11.328 9.185)">
      <g id="Group_12365" data-name="Group 12365">
        <path id="Path_18379" data-name="Path 18379" d="M20.085,257.323a8.767,8.767,0,0,0-8.757,8.757.381.381,0,1,0,.762,0,8,8,0,1,1,15.991,0,.381.381,0,1,0,.762,0A8.767,8.767,0,0,0,20.085,257.323Z" transform="translate(-11.328 -257.323)" fill="#121D55"/>
      </g>
    </g>
    <g id="Group_12368" data-name="Group 12368" transform="translate(15.897)">
      <g id="Group_12367" data-name="Group 12367" transform="translate(0)">
        <path id="Path_18380" data-name="Path 18380" d="M143.516,0A4.188,4.188,0,1,0,147.7,4.188,4.193,4.193,0,0,0,143.516,0Zm0,7.615a3.427,3.427,0,1,1,3.427-3.427A3.431,3.431,0,0,1,143.516,7.615Z" transform="translate(-139.328)" fill="#121D55"/>
      </g>
    </g>
  </g>
</svg>
