<svg id="Layer_1" data-name="Layer 1" xmlns="http://www.w3.org/2000/svg" viewBox="0 0 595.3 527.5"><defs><style>.cls-1{fill:#fff;}</style></defs><path class="cls-1" d="M59.2,495.7,47.1,476.9H37.7v18.8H31.8V448.3h19c8.7,0,14.8,5.5,14.8,14.3,0,8.5-5.8,13.2-12.3,13.8l12.8,19.3Zm.4-33c0-5.3-3.8-9-9.4-9H37.7v18.1H50.1C55.8,471.7,59.6,468,59.6,462.7Z"/><path class="cls-1" d="M115.9,495.7l-4.2-10.5H88.1l-4.2,10.5H77.2l19-47.4h7.3l19.1,47.4Zm-16-41.2L89.8,480h20.1Z"/><path class="cls-1" d="M135.9,495.7V448.3h5.9v47.4Z"/><path class="cls-1" d="M200.4,495.7v-39l-16.1,39h-2.4l-16-39v39H160V448.3h8.5l14.7,35.6L198,448.3h8.4v47.4Z"/><path class="cls-1" d="M222.5,472.1c0-14,9.4-24.5,23.5-24.5s23.5,10.5,23.5,24.5S260,496.6,246,496.6,222.5,486.1,222.5,472.1Zm40.9,0c0-11.1-6.8-19.2-17.4-19.2s-17.4,8.2-17.4,19.2,6.7,19.2,17.4,19.2S263.4,483.1,263.4,472.1Z"/><path class="cls-1" d="M319.3,495.7,291.7,458v37.8h-5.9V448.4h6l27.3,37v-37H325v47.4h-5.7Z"/><path class="cls-1" d="M368.6,495.7V448.3h5.9v42.1h22v5.3Z"/><path class="cls-1" d="M445.6,495.7l-4.2-10.5H417.8l-4.2,10.5H407l19-47.4h7.3l19.1,47.4Zm-15.9-41.2L419.6,480h20.1Z"/><path class="cls-1" d="M499.1,495.7,471.5,458v37.8h-5.9V448.4h6l27.3,37v-37h5.9v47.4h-5.7Z"/><path class="cls-1" d="M523,495.7V448.3h16.2c14.7,0,24.3,10.3,24.3,23.7s-9.6,23.6-24.3,23.6H523Zm34.3-23.6c0-10.2-6.5-18.5-18.2-18.5H528.8v36.8h10.3C550.7,490.5,557.3,482.3,557.3,472.1Z"/><polygon class="cls-1" points="297.3 121.8 309.6 132.2 309.6 321.7 298.5 332.5 286.8 322 286.8 133.4 297.3 121.8"/><polygon class="cls-1" points="154.3 160.3 239.6 225.8 239.6 260.9 196.3 305.5 239.6 348.8 239.6 385 179 322.7 178.7 366.1 153.8 392.1 153.8 312.6 219.3 246.6 154 195.8 154.3 160.3"/><polygon class="cls-1" points="274.5 106.5 274.5 287.7 252 311 252 129.3 274.5 106.5"/><polygon class="cls-1" points="344.7 97.3 344.7 287.4 322 311 322 119.4 344.7 97.3"/><polygon class="cls-1" points="357.1 30.9 379.6 53.3 379.6 219.1 438.9 160.3 438.9 195.1 379.6 255.4 357.1 232.6 357.1 30.9"/></svg>