<svg xmlns="http://www.w3.org/2000/svg" width="35.07" height="35.071" viewBox="0 0 35.07 35.071">
  <g id="bathtub" transform="translate(0 0.001)">
    <path id="Path_18435" data-name="Path 18435" d="M33.317,16.365H32.148v-.585a1.755,1.755,0,0,0-1.753-1.753H22.211a1.755,1.755,0,0,0-1.753,1.753v.585H4.092V4.675a3.5,3.5,0,0,1,6.97-.525A3.511,3.511,0,0,0,8.183,7.6v.584a.585.585,0,0,0,.585.585h5.845a.585.585,0,0,0,.585-.585V7.6a3.509,3.509,0,0,0-2.956-3.459,4.675,4.675,0,0,0-9.319.537v11.69H1.754a1.75,1.75,0,0,0-.585,3.4v4.782a8.188,8.188,0,0,0,7.6,8.154v.614a1.753,1.753,0,1,0,3.507,0v-.584H22.8v.584a1.753,1.753,0,1,0,3.507,0V32.7a8.188,8.188,0,0,0,7.6-8.154V19.764a1.749,1.749,0,0,0-.585-3.4ZM14.028,7.6H9.352a2.338,2.338,0,0,1,4.676,0ZM29.81,16.365v-.585a.584.584,0,0,1,1.169,0v.585Zm-8.183-.585a.585.585,0,0,1,.584-.584h6.537a1.729,1.729,0,0,0-.108.584v6.43H23.38a.584.584,0,0,0,0,1.169h5.261v1.169H21.627ZM11.106,33.316a.584.584,0,1,1-1.169,0v-.584h1.169Zm14.028,0a.584.584,0,1,1-1.169,0v-.584h1.169Zm.584-1.753H9.352a7.023,7.023,0,0,1-7.014-7.014V19.872h15.2a.584.584,0,1,0,0-1.169H1.754a.571.571,0,0,1-.416-.179.562.562,0,0,1-.168-.406.585.585,0,0,1,.585-.584h18.7v7.014a1.165,1.165,0,0,0,.584,1.007v1.331a.584.584,0,1,0,1.169,0V25.717H23.38v1.169a.584.584,0,1,0,1.169,0V25.717h1.169v1.169a.585.585,0,0,0,1.169,0V25.717h1.169v1.169a.584.584,0,1,0,1.169,0V25.554a1.165,1.165,0,0,0,.584-1.006V19.872h2.923v4.676A7.022,7.022,0,0,1,25.718,31.562Zm7.6-12.859H29.81V17.534h3.507a.572.572,0,0,1,.417.179.561.561,0,0,1,.168.405A.585.585,0,0,1,33.317,18.7Zm0,0" transform="translate(0 0)" fill="#121D55"/>
    <path id="Path_18436" data-name="Path 18436" d="M163.3,145.651a.584.584,0,0,0-1.169,0v.585a.584.584,0,0,0,1.169,0Zm0,0" transform="translate(-151.027 -135.131)" fill="#121D55"/>
    <path id="Path_18437" data-name="Path 18437" d="M162.717,187.73a.585.585,0,0,0-.585.585v.585a.584.584,0,0,0,1.169,0v-.585A.585.585,0,0,0,162.717,187.73Zm0,0" transform="translate(-151.027 -174.873)" fill="#121D55"/>
    <path id="Path_18438" data-name="Path 18438" d="M132.843,135.479l-.409.418a.585.585,0,1,0,.835.818l.409-.417a.585.585,0,1,0-.835-.818Zm0,0" transform="translate(-123.207 -126.036)" fill="#121D55"/>
    <path id="Path_18439" data-name="Path 18439" d="M102.976,165.95l-.409.418a.585.585,0,1,0,.835.818l.409-.418a.585.585,0,1,0-.835-.818Zm0,0" transform="translate(-95.385 -154.421)" fill="#121D55"/>
    <path id="Path_18440" data-name="Path 18440" d="M186.2,135.471a.585.585,0,0,0-.008.827l.409.417a.585.585,0,1,0,.835-.818l-.409-.418a.584.584,0,0,0-.827-.008Zm0,0" transform="translate(-173.286 -126.037)" fill="#121D55"/>
    <path id="Path_18441" data-name="Path 18441" d="M216.058,166.772l.409.418a.585.585,0,1,0,.835-.818l-.409-.418a.585.585,0,0,0-.835.818Zm0,0" transform="translate(-201.103 -154.424)" fill="#121D55"/>
    <path id="Path_18442" data-name="Path 18442" d="M58.8,355.128H57.044a4.681,4.681,0,0,1-4.676-4.676.585.585,0,0,0-1.169,0,5.852,5.852,0,0,0,5.845,5.845H58.8a.584.584,0,1,0,0-1.169Zm0,0" transform="translate(-47.692 -325.903)" fill="#121D55"/>
    <path id="Path_18443" data-name="Path 18443" d="M51.784,308.953a.585.585,0,0,0,.584-.585v-.585a.585.585,0,0,0-1.169,0v.585A.585.585,0,0,0,51.784,308.953Zm0,0" transform="translate(-47.692 -286.158)" fill="#121D55"/>
  </g>
</svg>
