<svg xmlns="http://www.w3.org/2000/svg" width="40.139" height="28.521" viewBox="0 0 40.139 28.521">
  <path id="bed" d="M38.068,68.624V58.731a2.461,2.461,0,0,0-2.459-2.459H4.53a2.461,2.461,0,0,0-2.459,2.459v9.894A2.444,2.444,0,0,0,0,71.036V77.16a.774.774,0,0,0,.774.774H1.6v3.82a.774.774,0,0,0,.774.774h1.4v1.491a.774.774,0,0,0,1.549,0V82.528H34.815v1.491a.774.774,0,0,0,1.549,0V82.528h1.4a.774.774,0,0,0,.774-.774v-3.82h.829a.774.774,0,0,0,.774-.774V71.036A2.444,2.444,0,0,0,38.068,68.624ZM3.62,58.731a.911.911,0,0,1,.91-.91H35.609a.911.911,0,0,1,.91.91V68.6H33.8c.541-.582,1.091-1.195,1.661-1.85a.774.774,0,0,0,0-1.016,63.151,63.151,0,0,0-6.689-6.689.774.774,0,0,0-1.016,0,63.15,63.15,0,0,0-6.689,6.689.774.774,0,0,0,0,1.016c.57.655,1.12,1.268,1.661,1.85H17.411c.541-.582,1.091-1.195,1.661-1.85a.774.774,0,0,0,0-1.016,63.17,63.17,0,0,0-6.689-6.689.774.774,0,0,0-1.016,0A63.17,63.17,0,0,0,4.677,65.73a.774.774,0,0,0,0,1.016c.57.655,1.12,1.268,1.661,1.85H3.62ZM24.864,68.6c-.712-.731-1.432-1.508-2.183-2.358a60.449,60.449,0,0,1,5.583-5.584,60.45,60.45,0,0,1,5.584,5.584c-.751.85-1.471,1.627-2.183,2.358Zm-16.389,0c-.712-.731-1.432-1.508-2.184-2.358a60.463,60.463,0,0,1,5.584-5.584,60.463,60.463,0,0,1,5.584,5.584c-.751.85-1.471,1.627-2.184,2.358ZM36.987,80.979H3.152V77.934H36.987Zm1.6-4.594H1.549V71.036a.893.893,0,0,1,.892-.891H37.7a.893.893,0,0,1,.892.891Z" transform="translate(0 -56.272)" fill="#121D55"/>
</svg>
