<svg xmlns="http://www.w3.org/2000/svg" width="32" height="26.399" viewBox="0 0 32 26.399">
  <g id="brick" transform="translate(0 -44.807)">
    <g id="Group_12515" data-name="Group 12515" transform="translate(0 44.807)">
      <path id="Path_18446" data-name="Path 18446" d="M31.27,65.176H26.823V61.022H31.27a.73.73,0,0,0,.73-.73V55.721a.73.73,0,0,0-.73-.73H26.823V50.629a.73.73,0,0,0-.73-.73H21.648V45.537a.73.73,0,0,0-.73-.73H18.477a.469.469,0,1,0,0,.937h2.234V49.9H11.294V45.744h5.292a.469.469,0,1,0,0-.937H.732a.73.73,0,0,0-.73.73v4.782a.491.491,0,0,0,0,.049V55.46a.471.471,0,0,0,0,.049V60.5a.471.471,0,0,0,0,.049v1.66a.469.469,0,1,0,.937,0V61.022h4.24v4.155H.937V64.094a.469.469,0,1,0-.937,0v1.551a.471.471,0,0,0,0,.049v4.782a.73.73,0,0,0,.73.73H31.27a.73.73,0,0,0,.73-.73V65.906A.73.73,0,0,0,31.27,65.176Zm-4.916-9.247h4.708v4.155H21.648V55.929Zm-9.885-5.092h9.417v4.155H16.469Zm4.24,5.092v4.155H11.294V55.929h9.414Zm-5.177-5.092v4.155H6.115V50.837ZM.94,45.744h9.416V49.9H.94Zm0,5.092h4.24v4.155H.937Zm0,9.247V55.929h9.416v4.155H.94Zm9.416,10.185H.94V66.114h9.416Zm.469-5.092H6.115V61.022h9.416v4.155Zm9.883,5.092H11.294V66.114h9.414Zm.471-5.092h-4.71V61.022h9.416v4.155Zm9.883,5.092H21.648V66.114h9.414Z" transform="translate(0 -44.807)" fill="#121d55"/>
    </g>
  </g>
</svg>
