<svg xmlns="http://www.w3.org/2000/svg" width="28.928" height="30.134" viewBox="0 0 28.928 30.134">
  <g id="ceiling-light" transform="translate(-3.401 -2)">
    <path id="Path_18465" data-name="Path 18465" d="M44.179,2.861H42.9A.43.43,0,0,1,42.9,2h1.279a.43.43,0,0,1,0,.861Z" transform="translate(-22.251)" fill="#121d55"/>
    <path id="Path_18466" data-name="Path 18466" d="M32.031,5.607H4.79a.43.43,0,0,1-.43-.43V2.43A.43.43,0,0,1,4.79,2h9.126a.43.43,0,0,1,0,.861h-8.7V4.746H31.6V2.861H25.488a.43.43,0,1,1,0-.861h6.543a.43.43,0,0,1,.43.43V5.177A.43.43,0,0,1,32.031,5.607Z" transform="translate(-0.546)" fill="#121d55"/>
    <path id="Path_18467" data-name="Path 18467" d="M34.243,2.861H32.99a.43.43,0,1,1,0-.861h1.253a.43.43,0,0,1,0,.861Z" transform="translate(-16.607)" fill="#121d55"/>
    <path id="Path_18468" data-name="Path 18468" d="M36.43,26.816a.43.43,0,0,1-.43-.43V8.809a.43.43,0,0,1,.861,0V26.385A.43.43,0,0,1,36.43,26.816Z" transform="translate(-18.566 -3.633)" fill="#121d55"/>
    <path id="Path_18469" data-name="Path 18469" d="M35.072,56.9H26.659a.43.43,0,0,1-.421-.523l1.5-6.825a.43.43,0,0,1,.421-.338h5.408a.43.43,0,0,1,.421.338l1.5,6.827a.43.43,0,0,1-.421.523Zm-7.878-.861h7.342l-1.313-5.966H28.507Z" transform="translate(-13.001 -26.89)" fill="#121d55"/>
    <path id="Path_18470" data-name="Path 18470" d="M33.623,68.053A2.555,2.555,0,0,1,31.07,65.5a.43.43,0,0,1,.861,0,1.692,1.692,0,0,0,3.384,0,.43.43,0,0,1,.861,0A2.555,2.555,0,0,1,33.623,68.053Z" transform="translate(-15.758 -35.919)" fill="#121d55"/>
    <path id="Path_18471" data-name="Path 18471" d="M59.846,19.888a.43.43,0,0,1-.43-.43V8.809a.43.43,0,0,1,.861,0V19.457A.43.43,0,0,1,59.846,19.888Z" transform="translate(-31.902 -3.633)" fill="#121d55"/>
    <path id="Path_18472" data-name="Path 18472" d="M58.569,40.395H50.661a.43.43,0,0,1-.42-.523l1.412-6.419a.43.43,0,0,1,.421-.338h5.084a.43.43,0,0,1,.421.338l1.412,6.418a.43.43,0,0,1-.42.523ZM51.2,39.534h6.837l-1.222-5.557H52.42Z" transform="translate(-26.67 -17.721)" fill="#121d55"/>
    <path id="Path_18473" data-name="Path 18473" d="M57.207,50.882a2.428,2.428,0,0,1-2.425-2.425.43.43,0,0,1,.861,0,1.564,1.564,0,1,0,3.129,0,.43.43,0,0,1,.861,0,2.428,2.428,0,0,1-2.425,2.425Z" transform="translate(-29.263 -26.213)" fill="#121d55"/>
    <path id="Path_18474" data-name="Path 18474" d="M13.014,19.888a.43.43,0,0,1-.43-.43V8.809a.43.43,0,0,1,.861,0V19.457A.43.43,0,0,1,13.014,19.888Z" transform="translate(-5.23 -3.633)" fill="#121d55"/>
    <path id="Path_18475" data-name="Path 18475" d="M11.739,40.395H3.831a.43.43,0,0,1-.42-.523l1.41-6.419a.43.43,0,0,1,.421-.338h5.085a.43.43,0,0,1,.421.338l1.412,6.418a.43.43,0,0,1-.42.523Zm-7.372-.861H11.2L9.981,33.977H5.588Z" transform="translate(0 -17.721)" fill="#121d55"/>
    <path id="Path_18476" data-name="Path 18476" d="M10.375,50.882A2.428,2.428,0,0,1,7.95,48.456a.43.43,0,0,1,.861,0,1.564,1.564,0,1,0,3.129,0,.43.43,0,0,1,.861,0,2.428,2.428,0,0,1-2.425,2.425Z" transform="translate(-2.591 -26.213)" fill="#121d55"/>
  </g>
</svg>
