<svg id="floor" xmlns="http://www.w3.org/2000/svg" width="28.717" height="28.717" viewBox="0 0 28.717 28.717">
  <g id="Group_12517" data-name="Group 12517">
    <path id="Path_18463" data-name="Path 18463" d="M27.876,0H.841A.841.841,0,0,0,0,.841V27.876a.841.841,0,0,0,.841.841H27.876a.841.841,0,0,0,.841-.841V.841A.841.841,0,0,0,27.876,0ZM1.683,1.683H8.469V18.565H1.683ZM18.565,27.034H1.683V20.248H18.565Zm0-8.469H10.152V10.152h8.413Zm8.469,8.469H20.248V10.152h6.787Zm0-18.565H10.152V1.683H27.034Z" fill="#121d55"/>
  </g>
</svg>
