<svg id="floor" xmlns="http://www.w3.org/2000/svg" width="29.405" height="29.405" viewBox="0 0 29.405 29.405">
  <path id="Path_18489" data-name="Path 18489" d="M28.974,7.136a.431.431,0,0,0,.431-.431V.431A.431.431,0,0,0,28.974,0H8.428a.431.431,0,0,0,0,.861h5.844v13.41H.861V8.428a.431.431,0,0,0-.861,0V28.974a.431.431,0,0,0,.431.431H20.977a.431.431,0,1,0,0-.861H15.133V15.133h13.41v13.41H22.7a.431.431,0,1,0,0,.861h6.274a.431.431,0,0,0,.431-.431V8.428a.431.431,0,1,0-.861,0v5.844H15.133V.861h13.41V6.705A.431.431,0,0,0,28.974,7.136Zm-28.113,8h13.41v13.41H.861Zm0,0" fill="#121d55"/>
  <path id="Path_18490" data-name="Path 18490" d="M425.509,180.5a.431.431,0,0,0,.431-.431v-1.088l1.539-1.539h1.088a.431.431,0,0,0,0-.861H427.3a.43.43,0,0,0-.3.126L425.2,178.5a.43.43,0,0,0-.126.3v1.266A.431.431,0,0,0,425.509,180.5Zm0,0" transform="translate(-400.665 -166.437)" fill="#121d55"/>
  <path id="Path_18491" data-name="Path 18491" d="M270.679,180.5a.431.431,0,0,0,.431-.431V178.8a.431.431,0,0,0-.126-.3l-1.791-1.791a.431.431,0,0,0-.3-.126h-1.266a.431.431,0,1,0,0,.861h1.088l1.538,1.539v1.088A.431.431,0,0,0,270.679,180.5Zm0,0" transform="translate(-251.846 -166.437)" fill="#121d55"/>
  <path id="Path_18492" data-name="Path 18492" d="M267.622,22.61h1.266a.43.43,0,0,0,.3-.126l1.791-1.791a.43.43,0,0,0,.126-.3V19.122a.431.431,0,1,0-.861,0V20.21l-1.538,1.539h-1.088a.431.431,0,1,0,0,.861Zm0,0" transform="translate(-251.846 -17.618)" fill="#121d55"/>
  <path id="Path_18493" data-name="Path 18493" d="M428.566,21.748h-1.088L425.94,20.21V19.122a.431.431,0,0,0-.861,0v1.266a.431.431,0,0,0,.126.3L427,22.484a.431.431,0,0,0,.3.126h1.266a.431.431,0,0,0,0-.861Zm0,0" transform="translate(-400.665 -17.618)" fill="#121d55"/>
  <path id="Path_18494" data-name="Path 18494" d="M325.47,81.346l.25-.25a1.4,1.4,0,0,1,1.983,0l.25.25a.431.431,0,0,0,.609,0l1.285-1.285a.431.431,0,0,0,0-.609l-.25-.25a1.4,1.4,0,0,1,0-1.983l.25-.25a.43.43,0,0,0,0-.609l-1.285-1.285a.431.431,0,0,0-.609,0l-.25.25a1.4,1.4,0,0,1-1.983,0l-.25-.25a.431.431,0,0,0-.609,0l-1.285,1.285a.431.431,0,0,0,0,.609l.25.25a1.4,1.4,0,0,1,0,1.983l-.25.25a.431.431,0,0,0,0,.609l1.285,1.285A.431.431,0,0,0,325.47,81.346Zm-.981-4.681.678-.678a2.266,2.266,0,0,0,3.091,0l.678.678a2.266,2.266,0,0,0,0,3.091l-.678.678a2.267,2.267,0,0,0-3.091,0l-.678-.678A2.266,2.266,0,0,0,324.488,76.664Zm0,0" transform="translate(-304.873 -70.643)" fill="#121d55"/>
  <path id="Path_18495" data-name="Path 18495" d="M.431,7.136a.431.431,0,0,0,.431-.431V.861H6.705a.431.431,0,0,0,0-.861H.431A.431.431,0,0,0,0,.431V6.705A.431.431,0,0,0,.431,7.136Zm0,0" fill="#121d55"/>
  <path id="Path_18496" data-name="Path 18496" d="M180.066,176.578H178.8a.43.43,0,0,0-.3.126L176.7,178.5a.43.43,0,0,0-.126.3v1.266a.431.431,0,0,0,.861,0v-1.088l1.539-1.539h1.088a.431.431,0,0,0,0-.861Zm0,0" transform="translate(-166.437 -166.437)" fill="#121d55"/>
  <path id="Path_18497" data-name="Path 18497" d="M22.179,180.5a.431.431,0,0,0,.431-.431V178.8a.431.431,0,0,0-.126-.3L20.693,176.7a.431.431,0,0,0-.3-.126H19.122a.431.431,0,1,0,0,.861H20.21l1.539,1.539v1.088A.431.431,0,0,0,22.179,180.5Zm0,0" transform="translate(-17.618 -166.437)" fill="#121d55"/>
  <path id="Path_18498" data-name="Path 18498" d="M19.122,22.61h1.266a.43.43,0,0,0,.3-.126l1.791-1.791a.43.43,0,0,0,.126-.3V19.122a.431.431,0,1,0-.861,0V20.21L20.21,21.748H19.122a.431.431,0,0,0,0,.861Zm0,0" transform="translate(-17.618 -17.618)" fill="#121d55"/>
  <path id="Path_18499" data-name="Path 18499" d="M177.009,18.691a.431.431,0,0,0-.431.431v1.266a.431.431,0,0,0,.126.3l1.791,1.791a.431.431,0,0,0,.3.126h1.266a.431.431,0,0,0,0-.861h-1.088L177.44,20.21V19.122A.431.431,0,0,0,177.009,18.691Zm0,0" transform="translate(-166.437 -17.618)" fill="#121d55"/>
  <path id="Path_18500" data-name="Path 18500" d="M79.453,75.076l-.25.25a1.4,1.4,0,0,1-1.983,0l-.25-.25a.431.431,0,0,0-.609,0l-1.285,1.285a.431.431,0,0,0,0,.609l.25.25a1.4,1.4,0,0,1,0,1.983l-.25.25a.431.431,0,0,0,0,.609l1.285,1.285a.431.431,0,0,0,.609,0l.25-.25a1.4,1.4,0,0,1,1.983,0l.25.25a.431.431,0,0,0,.609,0l1.285-1.285a.431.431,0,0,0,0-.609l-.25-.25a1.4,1.4,0,0,1,0-1.983l.25-.25a.43.43,0,0,0,0-.609l-1.285-1.285A.431.431,0,0,0,79.453,75.076Zm.981,4.681-.678.678a2.267,2.267,0,0,0-3.091,0l-.678-.678a2.266,2.266,0,0,0,0-3.091l.678-.678a2.266,2.266,0,0,0,3.091,0l.678.678A2.266,2.266,0,0,0,80.435,79.758Zm0,0" transform="translate(-70.645 -70.646)" fill="#121d55"/>
  <path id="Path_18501" data-name="Path 18501" d="M428.566,425.078H427.3a.43.43,0,0,0-.3.126L425.2,427a.43.43,0,0,0-.126.3v1.266a.431.431,0,0,0,.861,0v-1.088l1.539-1.539h1.088a.431.431,0,0,0,0-.861Zm0,0" transform="translate(-400.665 -400.665)" fill="#121d55"/>
  <path id="Path_18502" data-name="Path 18502" d="M270.679,429a.431.431,0,0,0,.431-.431V427.3a.431.431,0,0,0-.126-.3l-1.791-1.791a.431.431,0,0,0-.3-.126h-1.266a.431.431,0,1,0,0,.861h1.088l1.538,1.539v1.088A.431.431,0,0,0,270.679,429Zm0,0" transform="translate(-251.846 -400.665)" fill="#121d55"/>
  <path id="Path_18503" data-name="Path 18503" d="M267.622,271.11h1.266a.43.43,0,0,0,.3-.126l1.791-1.791a.43.43,0,0,0,.126-.3v-1.266a.431.431,0,1,0-.861,0v1.088l-1.538,1.538h-1.088a.431.431,0,1,0,0,.861Zm0,0" transform="translate(-251.846 -251.846)" fill="#121d55"/>
  <path id="Path_18504" data-name="Path 18504" d="M425.509,267.191a.431.431,0,0,0-.431.431v1.266a.431.431,0,0,0,.126.3L427,270.984a.431.431,0,0,0,.3.126h1.266a.431.431,0,0,0,0-.861h-1.088l-1.539-1.538v-1.088A.431.431,0,0,0,425.509,267.191Zm0,0" transform="translate(-400.665 -251.846)" fill="#121d55"/>
  <path id="Path_18505" data-name="Path 18505" d="M325.47,329.846l.25-.25a1.4,1.4,0,0,1,1.983,0l.25.25a.431.431,0,0,0,.609,0l1.285-1.285a.431.431,0,0,0,0-.609l-.25-.25a1.4,1.4,0,0,1,0-1.983l.25-.25a.43.43,0,0,0,0-.609l-1.285-1.285a.431.431,0,0,0-.609,0l-.25.25a1.4,1.4,0,0,1-1.983,0l-.25-.25a.431.431,0,0,0-.609,0l-1.285,1.285a.431.431,0,0,0,0,.609l.25.25a1.4,1.4,0,0,1,0,1.983l-.25.25a.431.431,0,0,0,0,.609l1.285,1.285A.431.431,0,0,0,325.47,329.846Zm-.981-4.681.678-.678a2.266,2.266,0,0,0,3.091,0l.678.678a2.266,2.266,0,0,0,0,3.091l-.678.678a2.266,2.266,0,0,0-3.091,0l-.678-.678A2.266,2.266,0,0,0,324.488,325.164Zm0,0" transform="translate(-304.873 -304.871)" fill="#121d55"/>
  <path id="Path_18506" data-name="Path 18506" d="M180.066,425.078H178.8a.43.43,0,0,0-.3.126L176.7,427a.43.43,0,0,0-.126.3v1.266a.431.431,0,0,0,.861,0v-1.088l1.539-1.539h1.088a.431.431,0,0,0,0-.861Zm0,0" transform="translate(-166.437 -400.665)" fill="#121d55"/>
  <path id="Path_18507" data-name="Path 18507" d="M20.693,425.2a.431.431,0,0,0-.3-.126H19.122a.431.431,0,0,0,0,.861H20.21l1.539,1.539v1.088a.431.431,0,0,0,.861,0V427.3a.431.431,0,0,0-.126-.3Zm0,0" transform="translate(-17.618 -400.665)" fill="#121d55"/>
  <path id="Path_18508" data-name="Path 18508" d="M19.122,271.11h1.266a.43.43,0,0,0,.3-.126l1.791-1.791a.43.43,0,0,0,.126-.3v-1.266a.431.431,0,1,0-.861,0v1.088l-1.539,1.538H19.122a.431.431,0,1,0,0,.861Zm0,0" transform="translate(-17.618 -251.846)" fill="#121d55"/>
  <path id="Path_18509" data-name="Path 18509" d="M180.066,270.249h-1.088l-1.539-1.538v-1.088a.431.431,0,1,0-.861,0v1.266a.431.431,0,0,0,.126.3l1.791,1.791a.431.431,0,0,0,.3.126h1.266a.431.431,0,0,0,0-.861Zm0,0" transform="translate(-166.437 -251.846)" fill="#121d55"/>
  <path id="Path_18510" data-name="Path 18510" d="M81.473,328.259a.431.431,0,0,0-.126-.3l-.25-.25a1.4,1.4,0,0,1,0-1.983l.25-.25a.431.431,0,0,0,0-.609l-1.285-1.285a.431.431,0,0,0-.609,0l-.25.25a1.4,1.4,0,0,1-1.983,0l-.25-.25a.431.431,0,0,0-.609,0l-1.285,1.285a.431.431,0,0,0,0,.609l.25.25a1.4,1.4,0,0,1,0,1.983l-.25.25a.43.43,0,0,0,0,.609l1.285,1.285a.431.431,0,0,0,.609,0l.25-.25a1.4,1.4,0,0,1,1.983,0l.25.25a.431.431,0,0,0,.609,0l1.285-1.285A.43.43,0,0,0,81.473,328.259Zm-1.717.677a2.267,2.267,0,0,0-3.091,0l-.678-.678a2.266,2.266,0,0,0,0-3.091l.678-.678a2.266,2.266,0,0,0,3.091,0l.678.678a2.266,2.266,0,0,0,0,3.091Zm0,0" transform="translate(-70.645 -304.874)" fill="#121d55"/>
</svg>
