<svg id="gas-stove" xmlns="http://www.w3.org/2000/svg" width="27.66" height="27.644" viewBox="0 0 27.66 27.644">
  <path id="Path_18325" data-name="Path 18325" d="M27.66,3.034a1.255,1.255,0,0,0-1.254-1.254h-2.7V.968A.969.969,0,0,0,22.739,0H17.17A.969.969,0,0,0,16.2.968v.813H11.458V.968A.969.969,0,0,0,10.49,0H4.921a.969.969,0,0,0-.968.968v.813h-2.7A1.255,1.255,0,0,0,0,3.034V5.708a1.248,1.248,0,0,0,.332.848A1.248,1.248,0,0,0,0,7.4V23.925a1.255,1.255,0,0,0,1.254,1.254h.129v1.213a1.253,1.253,0,0,0,1.252,1.252H15.2a.405.405,0,1,0,0-.811H2.634a.442.442,0,0,1-.441-.441V25.179H25.467v1.213a.442.442,0,0,1-.441.441H17.078a.405.405,0,1,0,0,.811h7.948a1.253,1.253,0,0,0,1.252-1.252V25.179h.129a1.255,1.255,0,0,0,1.254-1.254V7.4a1.249,1.249,0,0,0-.332-.848,1.249,1.249,0,0,0,.332-.848ZM17.013.968A.157.157,0,0,1,17.17.811h5.569A.157.157,0,0,1,22.9.968v.813H17.013ZM4.764.968A.157.157,0,0,1,4.921.811H10.49a.157.157,0,0,1,.157.157v.813H4.764ZM26.849,23.925a.443.443,0,0,1-.443.443H1.254a.443.443,0,0,1-.443-.443V7.4a.443.443,0,0,1,.443-.443H26.407a.443.443,0,0,1,.443.443Zm0-18.217a.443.443,0,0,1-.443.443H1.254a.443.443,0,0,1-.443-.443V3.034a.443.443,0,0,1,.443-.443H26.407a.443.443,0,0,1,.443.443Zm0,0" fill="#121D55"/>
  <path id="Path_18326" data-name="Path 18326" d="M81.728,55.152a1.392,1.392,0,1,0,1.392,1.392A1.393,1.393,0,0,0,81.728,55.152Zm0,1.973a.581.581,0,1,1,.581-.581A.582.582,0,0,1,81.728,57.125Zm0,0" transform="translate(-75.996 -52.173)" fill="#121D55"/>
  <path id="Path_18327" data-name="Path 18327" d="M154.8,55.152a1.392,1.392,0,1,0,1.392,1.392A1.393,1.393,0,0,0,154.8,55.152Zm0,1.973a.581.581,0,1,1,.581-.581A.582.582,0,0,1,154.8,57.125Zm0,0" transform="translate(-145.119 -52.173)" fill="#121D55"/>
  <path id="Path_18328" data-name="Path 18328" d="M308.466,55.152a1.392,1.392,0,1,0,1.392,1.392A1.393,1.393,0,0,0,308.466,55.152Zm0,1.973a.581.581,0,1,1,.581-.581A.582.582,0,0,1,308.466,57.125Zm0,0" transform="translate(-290.485 -52.173)" fill="#121D55"/>
  <path id="Path_18329" data-name="Path 18329" d="M381.532,55.152a1.392,1.392,0,1,0,1.392,1.392A1.393,1.393,0,0,0,381.532,55.152Zm0,1.973a.581.581,0,1,1,.581-.581A.582.582,0,0,1,381.532,57.125Zm0,0" transform="translate(-359.604 -52.173)" fill="#121D55"/>
  <path id="Path_18330" data-name="Path 18330" d="M79.912,171.937H68.127a.405.405,0,1,0,0,.811H79.912a.141.141,0,0,1,.141.141v1.072a.141.141,0,0,1-.141.141H60.6a.141.141,0,0,1-.141-.141v-1.072a.141.141,0,0,1,.141-.141h5.633a.405.405,0,1,0,0-.811H60.6a.952.952,0,0,0-.951.952v1.072a.953.953,0,0,0,.951.952h.542v8.993a1.4,1.4,0,0,0,1.4,1.4h15.43a1.4,1.4,0,0,0,1.4-1.4v-8.993h.542a.953.953,0,0,0,.952-.952v-1.072A.953.953,0,0,0,79.912,171.937Zm-1.353,11.969a.589.589,0,0,1-.588.588H62.541a.589.589,0,0,1-.588-.588v-8.993H78.559Zm0,0" transform="translate(-56.426 -162.649)" fill="#121D55"/>
</svg>
