<svg xmlns="http://www.w3.org/2000/svg" width="31" height="31" viewBox="0 0 31 31">
  <g id="Outline" transform="translate(-16 -16)">
    <path id="Path_18511" data-name="Path 18511" d="M40.969,320.859H30.636v-4.65H32.7v-1.033H28.57a7.251,7.251,0,0,1-6.973-5.3l-1,.275a8.287,8.287,0,0,0,7.97,6.063H29.6v5.167a.517.517,0,0,0,.517.517H41.486a.517.517,0,0,0,.517-.517v-3.1H40.969Z" transform="translate(-4.303 -274.893)" fill="#121d55"/>
    <path id="Path_18512" data-name="Path 18512" d="M48.032,287.372a6.178,6.178,0,0,0,.209,1.128l.994-.282a5.137,5.137,0,0,1-.174-.939Z" transform="translate(-29.964 -253.759)" fill="#121d55"/>
    <path id="Path_18513" data-name="Path 18513" d="M62.9,320.1l.187-1.016a5.206,5.206,0,0,1-3.662-2.733l-.92.471A6.246,6.246,0,0,0,62.9,320.1Z" transform="translate(-39.76 -280.954)" fill="#121d55"/>
    <path id="Path_18514" data-name="Path 18514" d="M45.45,16H38.216a1.552,1.552,0,0,0-1.55,1.55V30.983H34.512a2.907,2.907,0,0,0,.08-.359c0-.022.008-13.075.008-13.075a1.55,1.55,0,1,0-3.1,0V28.917H17.55a1.551,1.551,0,0,0-1.4,2.219A.515.515,0,0,0,16,31.5v1.55a8.366,8.366,0,0,0,.073,1.1l1.024-.137a7.337,7.337,0,0,1-.064-.965V32.017H45.966v1.55H37.183a.517.517,0,0,0-.517.517V42.35H37.7V34.6h8.267A1.035,1.035,0,0,0,47,33.567V17.55A1.552,1.552,0,0,0,45.45,16Zm-7.233,1.033H45.45a.517.517,0,0,1,.517.517v1.033H37.7V17.55A.517.517,0,0,1,38.216,17.033Zm-5.683.517a.517.517,0,0,1,1.033,0V30.467a.521.521,0,0,1,0,.052.056.056,0,0,1,0,.006.517.517,0,0,1-.454.455H33.1a.517.517,0,0,1-.569-.514ZM17.185,30.833a.517.517,0,0,1,.365-.883H31.5v.517a1.543,1.543,0,0,0,.089.517H17.55A.515.515,0,0,1,17.185,30.833Zm20.515.15V19.617h8.267V30.983Z" fill="#121d55"/>
    <path id="Path_18515" data-name="Path 18515" d="M380.133,88h-1.55a1.035,1.035,0,0,0-1.033,1.033v.661l-1.2.4a.517.517,0,0,0-.353.49v1.033a.517.517,0,0,0,.517.517h3.617a1.035,1.035,0,0,0,1.033-1.033V89.033A1.035,1.035,0,0,0,380.133,88Zm0,3.1h-3.1v-.144l1.2-.4a.517.517,0,0,0,.353-.49V89.033h1.55V91.1Z" transform="translate(-336.75 -67.35)" fill="#121d55"/>
  </g>
</svg>
