<svg id="outlet" xmlns="http://www.w3.org/2000/svg" width="27.405" height="28.717" viewBox="0 0 27.405 28.717">
  <path id="Path_18543" data-name="Path 18543" d="M264.212,0h-8.7a2.252,2.252,0,0,0-2.249,2.249v8.081a2.252,2.252,0,0,0,2.249,2.249h8.7a2.252,2.252,0,0,0,2.249-2.249V2.249A2.252,2.252,0,0,0,264.212,0Zm1.128,10.331a1.129,1.129,0,0,1-1.128,1.128h-8.7a1.129,1.129,0,0,1-1.128-1.128V2.249a1.129,1.129,0,0,1,1.128-1.128h8.7a1.129,1.129,0,0,1,1.128,1.128Zm0,0" transform="translate(-239.057)" fill="#121d55"/>
  <path id="Path_18544" data-name="Path 18544" d="M304.17,41.418a3.967,3.967,0,1,0,3.967,3.967A3.972,3.972,0,0,0,304.17,41.418Zm0,6.812a2.845,2.845,0,1,1,2.845-2.845A2.849,2.849,0,0,1,304.17,48.23Zm0,0" transform="translate(-283.365 -39.095)" fill="#121d55"/>
  <path id="Path_18545" data-name="Path 18545" d="M338.237,91.871a.561.561,0,0,0-.561.561v1.153a.561.561,0,0,0,1.122,0V92.432A.561.561,0,0,0,338.237,91.871Zm0,0" transform="translate(-318.736 -86.718)" fill="#121d55"/>
  <path id="Path_18546" data-name="Path 18546" d="M384.748,91.871a.561.561,0,0,0-.561.561v1.153a.561.561,0,0,0,1.122,0V92.432A.561.561,0,0,0,384.748,91.871Zm0,0" transform="translate(-362.639 -86.718)" fill="#121d55"/>
  <path id="Path_18547" data-name="Path 18547" d="M23.294,94.591H16.477a1.617,1.617,0,0,1-1.616-1.616V88.431a2.4,2.4,0,1,0-4.8,0v4.53a1.63,1.63,0,0,1-3.26,0V88.284a1.323,1.323,0,0,0,1.257-1.32v-.6h.027a3.1,3.1,0,0,0,3.1-3.1V79.805h.686a.609.609,0,0,0,.608-.608V78.132a1.56,1.56,0,0,0-1.558-1.558H9.846V72.432a1.456,1.456,0,0,0-2.912,0v4.141H5.541V72.432a1.456,1.456,0,0,0-2.912,0v4.141H1.558A1.56,1.56,0,0,0,0,78.132V79.2a.609.609,0,0,0,.608.608h.686V83.27a3.1,3.1,0,0,0,3.1,3.1h.027v.6a1.323,1.323,0,0,0,1.257,1.32v4.677a2.752,2.752,0,0,0,5.5,0v-4.53a1.28,1.28,0,0,1,2.559,0v4.544a2.741,2.741,0,0,0,2.737,2.737h6.818a.561.561,0,0,0,0-1.122ZM8.055,72.432a.334.334,0,0,1,.668,0v4.141H8.055Zm-4.3,0a.334.334,0,0,1,.668,0v4.141H3.75ZM2.416,83.27V79.805h3a.561.561,0,1,0,0-1.122h-4.3v-.552a.437.437,0,0,1,.436-.436h9.359a.437.437,0,0,1,.436.436v.552H9.907a.561.561,0,1,0,0,1.122h.151V83.27a1.978,1.978,0,0,1-1.976,1.976H4.392A1.978,1.978,0,0,1,2.416,83.27Zm3.125,3.693v-.6H6.934v.6a.2.2,0,0,1-.2.2H5.74A.2.2,0,0,1,5.541,86.964Zm0,0" transform="translate(0 -66.996)" fill="#121d55"/>
  <path id="Path_18548" data-name="Path 18548" d="M127.194,209.508h0a.561.561,0,1,0-.562-.561A.56.56,0,0,0,127.195,209.508Zm0,0" transform="translate(-119.53 -196.699)" fill="#121d55"/>
</svg>
