<svg xmlns="http://www.w3.org/2000/svg" width="33.898" height="30.618" viewBox="0 0 33.898 30.618">
  <g id="paint-roller" transform="translate(-8 -56)">
    <path id="Path_18486" data-name="Path 18486" d="M39.711,59.28H38.618V58.187a.547.547,0,0,0-.547-.547H36.977V56.547A.547.547,0,0,0,36.431,56H10.187a.547.547,0,0,0-.547.547V57.64H8.547A.547.547,0,0,0,8,58.187v3.28a.547.547,0,0,0,.547.547H9.64v1.093a.547.547,0,0,0,.547.547H11.28v3.827a1.641,1.641,0,0,0,2.187,1.547v1.734a1.64,1.64,0,0,0,3.28,0V66.295a1.641,1.641,0,0,0,2.187-1.547V63.654h17.5a.547.547,0,0,0,.547-.547V62.014h1.093a.547.547,0,0,0,.547-.547V60.374h1.093A1.1,1.1,0,0,1,40.8,61.467v4.374a1.1,1.1,0,0,1-1.093,1.093H24.949a.547.547,0,0,0-.547.547v2.187h-.547a.547.547,0,0,0-.547.547v1.093a.547.547,0,0,0-.547.547V84.977a1.642,1.642,0,0,0,1.64,1.64H25.5a1.642,1.642,0,0,0,1.64-1.64V71.856a.547.547,0,0,0-.547-.547V70.215a.547.547,0,0,0-.547-.547H25.5v-1.64H39.711A2.189,2.189,0,0,0,41.9,65.841V61.467A2.189,2.189,0,0,0,39.711,59.28ZM9.64,60.921H9.093V58.734H9.64Zm26.244,1.64h-17.5a.547.547,0,0,0-.547.547v1.64a.547.547,0,1,1-1.093,0,.547.547,0,0,0-1.093,0v6.014a.547.547,0,1,1-1.093,0v-3.28a.547.547,0,1,0-1.093,0,.547.547,0,1,1-1.093,0V63.108a.547.547,0,0,0-.547-.547H10.734V57.093h25.15Zm1.64-1.64h-.547V58.734h.547ZM24.4,70.762H25.5v.547H24.4Zm1.64,1.64V84.977a.547.547,0,0,1-.547.547H24.4a.547.547,0,0,1-.547-.547V72.4Z" fill="#121d55"/>
    <path id="Path_18487" data-name="Path 18487" d="M88.547,152a.547.547,0,0,0-.547.547v2.734a.547.547,0,0,0,1.093,0v-2.734A.547.547,0,0,0,88.547,152Z" transform="translate(-74.533 -89.439)" fill="#121d55"/>
    <path id="Path_18488" data-name="Path 18488" d="M120.547,144a.547.547,0,0,0-.547.547v.547a.547.547,0,0,0,1.093,0v-.547A.547.547,0,0,0,120.547,144Z" transform="translate(-104.346 -81.986)" fill="#121d55"/>
  </g>
</svg>
