<svg xmlns="http://www.w3.org/2000/svg" width="41.336" height="23.107" viewBox="0 0 41.336 23.107">
  <path id="Path_18350" data-name="Path 18350" d="M39.288,119.218h-.821v-3.052a3.276,3.276,0,0,0-3.272-3.272H23.335a3.27,3.27,0,0,0-2.667,1.379A3.27,3.27,0,0,0,18,112.894h-7.45a.606.606,0,1,0,0,1.211H18a2.064,2.064,0,0,1,2.061,2.061v6.056l-.039-.036a3.959,3.959,0,0,0-2.672-1.055H7.265a2.076,2.076,0,0,0-1.372-1.8,2.012,2.012,0,0,0-.672-.114H4.081v-3.052a2.064,2.064,0,0,1,2.061-2.061H8.129a.606.606,0,1,0,0-1.211H6.142a3.276,3.276,0,0,0-3.272,3.272v3.052H2.049A2.051,2.051,0,0,0,0,121.267v6.322a4.271,4.271,0,0,0,4.266,4.266h.3l-.663,1.785A1.768,1.768,0,0,0,5.548,136h.974a1.76,1.76,0,0,0,1.4-.695l2.61-3.451H30.808l2.61,3.451a1.76,1.76,0,0,0,1.4.694h.974a1.768,1.768,0,0,0,1.641-2.361l-.664-1.785h.3a4.271,4.271,0,0,0,4.266-4.266v-6.322A2.051,2.051,0,0,0,39.288,119.218Zm-18.014-3.052a2.064,2.064,0,0,1,2.061-2.061H35.194a2.064,2.064,0,0,1,2.061,2.061v3.052h-1.14a2.1,2.1,0,0,0-1.89,1.258,2.036,2.036,0,0,0-.155.655H23.985a3.972,3.972,0,0,0-2.711,1.091v-6.056Zm-14,6.176H17.351a2.714,2.714,0,0,1,2.711,2.711v.861H7.27Zm-.317,12.233a.543.543,0,0,1-.43.214H5.548a.544.544,0,0,1-.506-.728l.82-2.207H9.01Zm28.836.214h-.974a.543.543,0,0,1-.43-.214l-2.058-2.72h3.148l.82,2.207A.545.545,0,0,1,35.788,134.79Zm1.282-4.145H4.266a3.059,3.059,0,0,1-3.055-3.055v-6.322a.839.839,0,0,1,.838-.838H5.221a.839.839,0,0,1,.838.838v5.254a.606.606,0,0,0,.606.605H28.9a.606.606,0,1,0,0-1.211H21.274v-.861a2.714,2.714,0,0,1,2.711-2.711H34.067v3.572h-2.74a.606.606,0,0,0,0,1.211h3.345a.606.606,0,0,0,.606-.606v-5.254a.839.839,0,0,1,.838-.838h3.172a.839.839,0,0,1,.838.838v6.322h0A3.059,3.059,0,0,1,37.07,130.645Z" transform="translate(0 -112.894)" fill="#121D55"/>
</svg>
