<svg xmlns="http://www.w3.org/2000/svg" width="41.871" height="32.783" viewBox="0 0 41.871 32.783">
  <g id="sofa" transform="translate(-10 -93.393)">
    <path id="Path_18483" data-name="Path 18483" d="M204.931,208.3a4.5,4.5,0,0,0-1.171,1.217.511.511,0,0,0,.855.558,3.481,3.481,0,0,1,.907-.943.511.511,0,1,0-.591-.833Z" transform="translate(-177.194 -105.041)" fill="#121d55"/>
    <path id="Path_18484" data-name="Path 18484" d="M18.489,125.155H14.746V101.763c0-.009,0-.016,0-.025a7.15,7.15,0,0,1,6.945-7.324,7.121,7.121,0,0,1,6.929,6.86,4.506,4.506,0,0,0-3.974,4.468v.8a.511.511,0,0,0,.511.511h2.272a1.864,1.864,0,0,0,3.62,0h2.086a.511.511,0,0,0,.511-.511v-.8a4.506,4.506,0,0,0-4-4.472,8.147,8.147,0,0,0-7.953-7.877,8.169,8.169,0,0,0-7.966,8.3c0,.012,0,.024,0,.036v23.426H10.511a.511.511,0,0,0,0,1.021h7.978a.511.511,0,1,0,0-1.021Zm10.752-17.7a.846.846,0,0,1-.7-.4h1.41A.846.846,0,0,1,29.241,107.45Zm3.385-1.708v.287H25.669v-.287a3.479,3.479,0,0,1,6.957,0Z" fill="#121d55"/>
    <path id="Path_18485" data-name="Path 18485" d="M165.829,314.651v-3.379a2.152,2.152,0,0,0-2.166-2.133h-9.344a2.146,2.146,0,0,0-1.532.632c-.042.043-.082.086-.12.131a2.176,2.176,0,0,0-1.659-.764h-9.4a2.152,2.152,0,0,0-2.166,2.133v3.388a2.469,2.469,0,0,0-2.251,2.439v5.952a.511.511,0,0,0,.511.511h3.959a.511.511,0,0,0,.511-.511v-.68l21.086.006v.674a.511.511,0,0,0,.511.511h3.959a.511.511,0,0,0,.511-.511V317.1A2.471,2.471,0,0,0,165.829,314.651Zm-12.318-4.159a1.132,1.132,0,0,1,.808-.332h9.344a1.13,1.13,0,0,1,1.145,1.111v3.56a2.454,2.454,0,0,0-1.547,2.267v.2l-10.083,0v-5.973A1.159,1.159,0,0,1,153.51,310.492Zm-11.9-.332h9.4a1.13,1.13,0,0,1,1.145,1.112l0,6.024-9.981,0V317.1a2.458,2.458,0,0,0-1.708-2.326v-3.5a1.13,1.13,0,0,1,1.145-1.112Zm-.458,12.38h-2.938V317.1a1.469,1.469,0,0,1,2.938,0Zm1.021-1.191v-3.035l10.491,0h0l10.594,0v3.036Zm25.045,1.191h-2.938V317.1a1.469,1.469,0,0,1,2.938,0Z" transform="translate(-116.369 -197.386)" fill="#121d55"/>
  </g>
</svg>
