<svg xmlns="http://www.w3.org/2000/svg" width="23.358" height="28.451" viewBox="0 0 23.358 28.451">
  <g id="tap" transform="translate(-45.825)">
    <g id="Group_12516" data-name="Group 12516" transform="translate(45.825 0)">
      <path id="Path_18460" data-name="Path 18460" d="M373.369,370.4l-1.811-3.506a.562.562,0,0,0-.5-.3h0a.562.562,0,0,0-.5.3c-1.248,2.411-1.891,3.657-1.913,3.705a2.652,2.652,0,1,0,5.065,1.1,2.8,2.8,0,0,0-.341-1.3Zm-2.31,2.831a1.531,1.531,0,0,1-1.529-1.529,1.514,1.514,0,0,1,.135-.629c.06-.119.749-1.453,1.393-2.7l1.311,2.538a1.7,1.7,0,0,1,.218.788A1.531,1.531,0,0,1,371.059,373.229Z" transform="translate(-350.482 -346.217)" fill="#121d55"/>
      <path id="Path_18461" data-name="Path 18461" d="M64.626,19.1l3.305-1.464a2.1,2.1,0,0,0,1.049-2.82l-.705-1.491a.562.562,0,0,0-.734-.274l-.628.275-.97-1.939A7,7,0,0,0,56.817,8.2L53.371,9.778V6.13l.567-2.169a.577.577,0,0,1,.539-.37h6.367c2.267,0,3.647-2.66,3.7-2.774a.562.562,0,0,0-.5-.817H50.512c-.282,0-.573.014-.863.041a2.2,2.2,0,0,0-2,2.2V13.479a.562.562,0,1,0,1.124,0V6.618h3.472v4.035a.562.562,0,0,0,.8.511l4.245-1.948a5.867,5.867,0,0,1,7.65,2.669l.945,1.888-3.1,1.362-1.025-1.845a2.513,2.513,0,0,0-3.3-1.038l-5.891,2.874a.562.562,0,0,0-.315.5v9.107H48.776V18.417a.562.562,0,1,0-1.124,0V24.74a1.875,1.875,0,0,0-1.827,1.872v1.276a.562.562,0,0,0,.562.562h8.36a.562.562,0,0,0,.562-.562V26.613a1.876,1.876,0,0,0-1.874-1.874h-.064V15.983l5.575-2.72a1.39,1.39,0,0,1,1.824.574l.974,1.753-.3.131a.562.562,0,0,0-.287.743l.7,1.565A2.1,2.1,0,0,0,64.626,19.1ZM48.776,2.241a1.077,1.077,0,0,1,.977-1.082c.256-.024.511-.036.759-.036H63a3.024,3.024,0,0,1-2.16,1.343H54.477A1.7,1.7,0,0,0,52.87,3.61c0,.014-.009.028-.013.042l-.481,1.843h-3.6Zm5.41,24.371v.714H46.949v-.714a.751.751,0,0,1,.75-.75h5.737A.751.751,0,0,1,54.185,26.613Zm8.7-9.041-.467-1.049,5.078-2.228.472,1a.978.978,0,0,1-.488,1.313l-3.305,1.464A.979.979,0,0,1,62.881,17.571Z" transform="translate(-45.825 0)" fill="#121d55"/>
      <path id="Path_18462" data-name="Path 18462" d="M78.775,276.887a.562.562,0,1,0,.23-.7A.566.566,0,0,0,78.775,276.887Z" transform="translate(-76.904 -260.768)" fill="#121d55"/>
    </g>
  </g>
</svg>
