<svg xmlns="http://www.w3.org/2000/svg" width="27.677" height="30.717" viewBox="0 0 27.677 30.717">
  <g id="wood" transform="translate(-25.297)">
    <path id="Path_18464" data-name="Path 18464" d="M52.523,6.009a.451.451,0,0,0,.451-.451V1.352A1.354,1.354,0,0,0,51.622,0H26.649A1.354,1.354,0,0,0,25.3,1.352v5.1a.451.451,0,0,0,.9,0v-5.1A.451.451,0,0,1,26.649.9h1.527a22.058,22.058,0,0,0,.242,2.812A16.479,16.479,0,0,0,29.076,6.5,16.8,16.8,0,0,0,31.75,11.53a16.438,16.438,0,0,0,2.9,2.9,20.158,20.158,0,0,0,2.11,1.4c.15.089.3.177.451.264a6.813,6.813,0,0,1,2.46,1.98l.015.02V24.64a6.684,6.684,0,0,0-2.459-3.076,14.467,14.467,0,0,0-2.263-1.016,15.242,15.242,0,0,1-1.909-.827,14.961,14.961,0,0,1-3.93-3.535A21.542,21.542,0,0,0,26.2,13.27V8.256a.451.451,0,0,0-.9,0V29.365a1.354,1.354,0,0,0,1.352,1.352H51.622a1.354,1.354,0,0,0,1.352-1.352v-22a.451.451,0,0,0-.9,0v3.361A5.585,5.585,0,0,1,51,9a17.094,17.094,0,0,1-1-4.38c-.033-.243-.056-.5-.079-.74A11.544,11.544,0,0,0,49.752,2.6,5.521,5.521,0,0,0,49.4,1.563,6.025,6.025,0,0,1,49.149.9h2.473a.451.451,0,0,1,.451.451V5.559A.451.451,0,0,0,52.523,6.009Zm-.451,16.932c-1.91.335-4.047,1.839-4.079,6.875H46.909a1.345,1.345,0,0,0,.078-.451V14.036a3.691,3.691,0,0,0,.754.158,1.82,1.82,0,0,1,.952.3,6.21,6.21,0,0,1,1.187,1.579c.142.234.288.476.439.7a4.671,4.671,0,0,0,1.754,1.612Zm-7.129,6.875c-.01-.056-.341-1.668-.522-2.356a11.474,11.474,0,0,0-1.358-3.378,5.9,5.9,0,0,0-2.479-2.389V15.034c1.347.253,2.088,1.956,2.744,3.463a14.8,14.8,0,0,0,.738,1.542,8.633,8.633,0,0,0,2.018,2.382v6.943a.451.451,0,0,1-.451.451Zm-4.359-.451V22.7a5.843,5.843,0,0,1,1.724,1.872,10.637,10.637,0,0,1,1.241,3.115c.175.666.46,2.054.475,2.128H40.508A1.345,1.345,0,0,0,40.585,29.365Zm5.5-17.843a3.163,3.163,0,0,1-1.716-1.564,3.56,3.56,0,0,1,.518-3.3,3.876,3.876,0,0,1,1.2-.968Zm0-10.17V4.741a4.411,4.411,0,0,0-1.9,1.357,4.462,4.462,0,0,0-.648,4.2,4.032,4.032,0,0,0,2.552,2.161v8.762a8.594,8.594,0,0,1-1.242-1.636,14.21,14.21,0,0,1-.688-1.444c-.732-1.682-1.643-3.775-3.57-4.016V1.352A1.346,1.346,0,0,0,40.508.9h5.127a.451.451,0,0,1,.451.451ZM39.233.9a.451.451,0,0,1,.451.451V8.5a7.476,7.476,0,0,1-3.97-1.312A5.533,5.533,0,0,1,33.5,3.706c-.018-.089-.039-.184-.061-.284a4.034,4.034,0,0,1-.061-2.46A.457.457,0,0,0,33.409.9h5.824ZM37.661,15.317c-.148-.086-.3-.172-.443-.259A19.332,19.332,0,0,1,35.2,13.717a15.538,15.538,0,0,1-2.739-2.739,15.9,15.9,0,0,1-2.531-4.764,15.575,15.575,0,0,1-.622-2.631A20.888,20.888,0,0,1,29.078.9h3.345a5.564,5.564,0,0,0,.136,2.712c.021.1.041.189.059.276A6.429,6.429,0,0,0,35.2,7.931,8.364,8.364,0,0,0,39.684,9.4v7.308a10.64,10.64,0,0,0-2.022-1.394ZM26.2,29.365V20.751c.686.293,1.533,2.022,1.533,2.022a7.941,7.941,0,0,0,1.8,2.214c.316.3.643.615.938.953a9.825,9.825,0,0,1,1.367,2.067,8.235,8.235,0,0,1,.745,1.809H26.649A.451.451,0,0,1,26.2,29.365Zm7.289.451a8.2,8.2,0,0,0-.843-2.213,10.722,10.722,0,0,0-1.494-2.256c-.322-.368-.664-.695-.994-1.011a7.139,7.139,0,0,1-1.617-1.961l-.078-.158C28,21.265,27.425,20.1,26.2,19.8V14.438a25.567,25.567,0,0,1,2.248,2.345,15.869,15.869,0,0,0,4.175,3.731,16.154,16.154,0,0,0,2.02.878,13.575,13.575,0,0,1,2.125.949c1.431.846,2.153,2.706,2.79,4.346l.128.328v2.351a.451.451,0,0,1-.451.451Zm18.135,0H48.9a8.859,8.859,0,0,1,.866-4.206,3.341,3.341,0,0,1,2.311-1.75v5.505A.451.451,0,0,1,51.622,29.816Zm-3.055-27.9a4.759,4.759,0,0,1,.3.868,10.7,10.7,0,0,1,.153,1.179c.024.253.048.515.083.777A17.776,17.776,0,0,0,50.17,9.355a5.243,5.243,0,0,0,1.9,2.514v5.464a3.834,3.834,0,0,1-1-1.056c-.14-.21-.275-.433-.418-.669A6.83,6.83,0,0,0,49.262,13.8a2.64,2.64,0,0,0-1.4-.5,1.54,1.54,0,0,1-.807-.246.451.451,0,0,0-.067-.049V1.352A1.345,1.345,0,0,0,46.909.9h1.313a5.332,5.332,0,0,0,.345,1.011Z" fill="#121d55"/>
  </g>
</svg>
