<svg id="barcode-scanner_1_" data-name="barcode-scanner (1)" xmlns="http://www.w3.org/2000/svg" width="11.764" height="11.764" viewBox="0 0 11.764 11.764">
  <path id="Path_18409" data-name="Path 18409" d="M20.186,3.431a.245.245,0,0,1-.245-.245V1.225A.736.736,0,0,0,19.206.49H17.245a.245.245,0,1,1,0-.49h1.961a1.227,1.227,0,0,1,1.225,1.225V3.186A.245.245,0,0,1,20.186,3.431Z" transform="translate(-8.667)" fill="#fff"/>
  <path id="Path_18410" data-name="Path 18410" d="M19.206,20.431H17.245a.245.245,0,1,1,0-.49h1.961a.736.736,0,0,0,.735-.735V17.245a.245.245,0,1,1,.49,0v1.961A1.227,1.227,0,0,1,19.206,20.431Z" transform="translate(-8.667 -8.667)" fill="#fff"/>
  <path id="Path_18411" data-name="Path 18411" d="M3.186,20.431H1.225A1.227,1.227,0,0,1,0,19.206V17.245a.245.245,0,1,1,.49,0v1.961a.736.736,0,0,0,.735.735H3.186a.245.245,0,1,1,0,.49Z" transform="translate(0 -8.667)" fill="#fff"/>
  <path id="Path_18412" data-name="Path 18412" d="M.245,3.431A.245.245,0,0,1,0,3.186V1.225A1.227,1.227,0,0,1,1.225,0H3.186a.245.245,0,0,1,0,.49H1.225a.736.736,0,0,0-.735.735V3.186A.245.245,0,0,1,.245,3.431Z" fill="#fff"/>
  <path id="Path_18413" data-name="Path 18413" d="M11.127,16.451H5.735A.736.736,0,0,1,5,15.716v-1.47a.245.245,0,0,1,.49,0v1.47a.245.245,0,0,0,.245.245h5.392a.245.245,0,0,0,.245-.245v-1.47a.245.245,0,0,1,.49,0v1.47A.736.736,0,0,1,11.127,16.451Z" transform="translate(-2.549 -7.138)" fill="#fff"/>
  <path id="Path_18414" data-name="Path 18414" d="M11.617,7.941a.245.245,0,0,1-.245-.245V5.735a.245.245,0,0,0-.245-.245H5.735a.245.245,0,0,0-.245.245V7.7A.245.245,0,0,1,5,7.7V5.735A.736.736,0,0,1,5.735,5h5.392a.736.736,0,0,1,.735.735V7.7A.245.245,0,0,1,11.617,7.941Z" transform="translate(-2.549 -2.549)" fill="#fff"/>
  <path id="Path_18415" data-name="Path 18415" d="M11.578,14.49H3.245a.245.245,0,1,1,0-.49h8.333a.245.245,0,1,1,0,.49Z" transform="translate(-1.53 -7.138)" fill="#fff"/>
</svg>
