<svg xmlns="http://www.w3.org/2000/svg" width="17.949" height="17.786" viewBox="0 0 17.949 17.786">
  <g id="download-symbol" transform="translate(-1.17)">
    <path id="Path_18282" data-name="Path 18282" d="M19.119,12.552v4.017A1.216,1.216,0,0,1,17.9,17.786H2.388A1.216,1.216,0,0,1,1.17,16.569V12.552a1.217,1.217,0,0,1,2.434,0v2.8h13.08v-2.8a1.217,1.217,0,1,1,2.434,0Zm-9.873.968a1.219,1.219,0,0,0,1.723,0L14.62,9.869A1.217,1.217,0,0,0,12.9,8.148L11.326,9.722v-8.5a1.217,1.217,0,1,0-2.434,0v8.5L7.318,8.148A1.217,1.217,0,0,0,5.6,9.869Z" fill="#fff"/>
  </g>
</svg>
