<svg xmlns="http://www.w3.org/2000/svg" width="43.455" height="43.455" viewBox="0 0 43.455 43.455">
  <g id="radar" transform="translate(0 -0.001)">
    <g id="Group_12251" data-name="Group 12251" transform="translate(0 0.001)">
      <path id="Path_18286" data-name="Path 18286" d="M42.182,20.455a1.273,1.273,0,0,0-1.273,1.273A19.182,19.182,0,1,1,34.36,7.295l-4,4a13.546,13.546,0,1,0,4.91,10.437,1.273,1.273,0,1,0-2.546,0A11,11,0,1,1,28.553,13.1l-4.041,4.041a5.361,5.361,0,1,0,1.8,1.8L37.091,8.165a1.274,1.274,0,0,0,0-1.8A21.727,21.727,0,0,0,6.364,37.092,21.727,21.727,0,0,0,43.455,21.728,1.273,1.273,0,0,0,42.182,20.455ZM21.727,24.546a2.818,2.818,0,1,1,1.992-4.81h0a2.818,2.818,0,0,1-1.993,4.81Z" transform="translate(0 -0.001)" fill="#fff"/>
    </g>
  </g>
</svg>
