<svg xmlns="http://www.w3.org/2000/svg" width="58.662" height="58.66" viewBox="0 0 58.662 58.66">
  <g id="hood" transform="translate(0 -0.007)">
    <g id="Group_12332" data-name="Group 12332" transform="translate(14.118 31.743)">
      <g id="Group_12331" data-name="Group 12331">
        <path id="Path_18361" data-name="Path 18361" d="M125.174,277.336a1.145,1.145,0,1,0,.336.81A1.154,1.154,0,0,0,125.174,277.336Z" transform="translate(-123.218 -277)" fill="#121d55"/>
      </g>
    </g>
    <g id="Group_12334" data-name="Group 12334" transform="translate(18.535 31.743)">
      <g id="Group_12333" data-name="Group 12333">
        <path id="Path_18362" data-name="Path 18362" d="M163.733,277.336a1.145,1.145,0,1,0,.336.81A1.153,1.153,0,0,0,163.733,277.336Z" transform="translate(-161.777 -277)" fill="#121d55"/>
      </g>
    </g>
    <g id="Group_12336" data-name="Group 12336" transform="translate(22.953 31.743)">
      <g id="Group_12335" data-name="Group 12335">
        <path id="Path_18363" data-name="Path 18363" d="M202.292,277.336a1.145,1.145,0,1,0,.336.81A1.152,1.152,0,0,0,202.292,277.336Z" transform="translate(-200.336 -277)" fill="#121d55"/>
      </g>
    </g>
    <g id="Group_12338" data-name="Group 12338" transform="translate(0 0.007)">
      <g id="Group_12337" data-name="Group 12337">
        <path id="Path_18364" data-name="Path 18364" d="M58.661,15.791V1.153A1.146,1.146,0,0,0,57.515.007H1.146A1.146,1.146,0,0,0,0,1.153V29.566a1.146,1.146,0,0,0,1.146,1.146H9.855v5.5A1.146,1.146,0,0,0,11,37.357H31.91a1.146,1.146,0,1,0,0-2.291H12.146V30.712H46.517v4.354h-4.9a1.146,1.146,0,0,0,0,2.291h6.042a1.146,1.146,0,0,0,1.146-1.146v-5.5h8.706a1.146,1.146,0,0,0,1.146-1.146V15.844c0-.009,0-.018,0-.027S58.661,15.8,58.661,15.791ZM24.52,2.3h9.624V18.109H24.52ZM10.581,28.425c-.026,0-.052,0-.078,0H2.291V2.3H22.228V14.672H9.912a1.146,1.146,0,0,0,0,2.291H22.228v1.755Zm3.584,0,9.624-8.02H34.875l9.624,8.02Zm42.2,0H48.078l-11.643-9.7V16.964H56.369V28.421Zm0-13.749H36.435V2.3H56.369V14.672Z" transform="translate(0 -0.007)" fill="#121d55"/>
      </g>
    </g>
    <g id="Group_12350" data-name="Group 12350" transform="translate(6.188 41.939)">
      <g id="Group_12349" data-name="Group 12349">
        <path id="Path_18370" data-name="Path 18370" d="M99.151,380.427H91.946a5.889,5.889,0,0,0-1.232-6.517,3.6,3.6,0,0,1-.448-4.533,1.146,1.146,0,0,0,1.127-1.911l-1.14-1.14a1.146,1.146,0,0,0-1.62,0l-1.14,1.14a1.144,1.144,0,0,0,.262,1.816,5.891,5.891,0,0,0,1.338,6.249,3.59,3.59,0,0,1,.169,4.9H79.781a5.891,5.891,0,0,0-1.229-6.517,3.6,3.6,0,0,1-.448-4.533,1.146,1.146,0,0,0,1.127-1.911l-1.14-1.14a1.146,1.146,0,0,0-1.62,0l-1.14,1.14a1.144,1.144,0,0,0,.262,1.816,5.89,5.89,0,0,0,1.338,6.249,3.6,3.6,0,0,1,.169,4.9H67.619a5.891,5.891,0,0,0-1.229-6.517,3.594,3.594,0,0,1-.449-4.534,1.146,1.146,0,0,0,1.128-1.911l-1.14-1.14a1.146,1.146,0,0,0-1.62,0l-1.14,1.14a1.144,1.144,0,0,0,.259,1.814,5.89,5.89,0,0,0,1.341,6.251,3.6,3.6,0,0,1,.169,4.9H55.156a1.146,1.146,0,0,0,0,2.292h44a1.146,1.146,0,1,0,0-2.291Z" transform="translate(-54.01 -365.99)" fill="#121d55"/>
      </g>
    </g>
  </g>
</svg>
