<svg xmlns="http://www.w3.org/2000/svg" width="58.662" height="52.475" viewBox="0 0 58.662 52.475">
  <g id="Group_12894" data-name="Group 12894" transform="translate(-86.336 -340)">
    <g id="Group_12351" data-name="Group 12351" transform="translate(86.336 340)">
      <path id="Path_18371" data-name="Path 18371" d="M21.59,42.088,16.561,27.766A1.146,1.146,0,0,0,15.48,27h-9.3a1.146,1.146,0,0,0-1.081.766L.065,42.088a1.146,1.146,0,0,0,1.081,1.525h.461V47.28a1.146,1.146,0,1,0,2.291,0V43.613H7.39v33.57H5.011a1.146,1.146,0,1,0,0,2.291H16.641a1.146,1.146,0,1,0,0-2.291H14.265V43.613h6.244a1.146,1.146,0,0,0,1.081-1.525Zm-9.617,35.1H9.682V43.613h2.291Zm1.146-35.862H2.763l4.225-12.03h7.68l4.225,12.03Z" transform="translate(0 -27)" fill="#121d55"/>
    </g>
    <g id="Group_12353" data-name="Group 12353" transform="translate(103.809 357.874)">
      <path id="Path_18372" data-name="Path 18372" d="M188.877,190.828a4.783,4.783,0,0,0-1.9.392,9.573,9.573,0,0,0-9.464-8.22h-8.837a9.573,9.573,0,0,0-9.464,8.22,4.811,4.811,0,0,0-6.712,4.42v.1a4.642,4.642,0,0,0,2.291,4V202.7a10.33,10.33,0,0,0,7.073,9.79l-1.449,3.531a1.146,1.146,0,0,0,1.06,1.581h5.041a1.146,1.146,0,0,0,.928-.474l2.982-4.117h5.335l2.982,4.117a1.146,1.146,0,0,0,.928.474h5.041a1.146,1.146,0,0,0,1.06-1.581l-1.449-3.531a10.33,10.33,0,0,0,7.073-9.79v-2.956a4.642,4.642,0,0,0,2.292-4v-.1A4.818,4.818,0,0,0,188.877,190.828ZM165.932,215.31h-2.748l.962-2.344c.315.029.634.045.957.045H167.6Zm14.326,0-1.665-2.3h2.494c.323,0,.642-.016.957-.045l.962,2.344ZM191.4,195.744h0a2.351,2.351,0,0,1-2.349,2.349,1.146,1.146,0,0,0,0,2.291h.057V202.7a8.029,8.029,0,0,1-8.02,8.02H165.1a8.029,8.029,0,0,1-8.02-8.02v-2.317h.057a1.146,1.146,0,0,0,0-2.291,2.351,2.351,0,0,1-2.349-2.349v-.1a2.521,2.521,0,1,1,5.041,0v6.6a5.735,5.735,0,0,0,5.729,5.729h2.093a1.146,1.146,0,0,0,0-2.292h-2.093a3.441,3.441,0,0,1-3.437-3.437v-6.6a4.783,4.783,0,0,0-.716-2.522v-.559a7.276,7.276,0,0,1,7.268-7.268h8.837a7.277,7.277,0,0,1,7.268,7.268v.559a4.782,4.782,0,0,0-.716,2.522v6.6a3.441,3.441,0,0,1-3.437,3.437h-3.666a1.146,1.146,0,0,0,0,2.292h3.666a5.735,5.735,0,0,0,5.729-5.729v-6.6a2.521,2.521,0,1,1,5.041,0v.1Z" transform="translate(-152.5 -183)" fill="#121d55"/>
    </g>
  </g>
</svg>
