<svg xmlns="http://www.w3.org/2000/svg" width="54.388" height="54.388" viewBox="0 0 54.388 54.388">
  <path id="stationary-bike" d="M69.019,63.5,67.1,58.137a10.877,10.877,0,0,0-6.222-17.421L56.264,27.784H57.7a8.167,8.167,0,0,0,8.158-8.158v-.906a2.719,2.719,0,1,0-5.439,0v.906A2.722,2.722,0,0,1,57.7,22.345H51.352a2.719,2.719,0,0,0-.669,5.355l1.72,4.816L38.018,45.531l-7.688-.481-.678-.042-.056,0c-.069,0-.138,0-.207.005l-3.9-9.976h2.3A2.722,2.722,0,0,0,30.5,32.316v-.241a2.733,2.733,0,0,0-2.335-2.692l-9.065-1.3A2.719,2.719,0,0,0,16,30.781v1.536a2.722,2.722,0,0,0,2.719,2.719h1.194l4.8,12.269a6.334,6.334,0,0,0,1.18,9.2l-7.34,6.641A2.723,2.723,0,0,0,16,65.856v1.813a2.722,2.722,0,0,0,2.719,2.719h1.813a2.722,2.722,0,0,0,2.719-2.719H63.136a2.722,2.722,0,0,0,2.719,2.719h1.813a2.722,2.722,0,0,0,2.719-2.719V65.856A2.72,2.72,0,0,0,69.019,63.5ZM65.482,45.448a9.065,9.065,0,0,1,.876,10.6l-4.729-13.24a9.088,9.088,0,0,1,3.852,2.641Zm1.483,17.689H65.856a2.719,2.719,0,0,0-.569.061L52.639,27.784h1.7Zm-4.849-3.426a9.068,9.068,0,0,1-11.068-3.352l7.585-.474a4.523,4.523,0,0,0,1.953-.457Zm-6.7-18.76a10.928,10.928,0,0,0-6.4,5.268l-3.706-.232,8.965-8.239Zm.61,1.709,1.46,4.089-6.439-.4a9.106,9.106,0,0,1,4.979-3.686Zm-4.674-18.5H57.7a4.537,4.537,0,0,0,4.532-4.532v-.906a.906.906,0,1,1,1.813,0v.906A6.352,6.352,0,0,1,57.7,25.971H51.352a.906.906,0,0,1,0-1.813Zm1.711,10.206.546,1.53L42.8,45.83l-2.252-.141Zm-35.25-2.048V30.781a.906.906,0,0,1,.9-.906.953.953,0,0,1,.132.009l9.065,1.3a.911.911,0,0,1,.778.9v.24a.907.907,0,0,1-.906.906H18.719A.907.907,0,0,1,17.813,32.316Zm5.727,2.719,4.032,10.3a6.314,6.314,0,0,0-1.412.682l-4.3-10.987Zm1.525,16.316A4.537,4.537,0,0,1,29.57,46.82l28.58,1.786,1.82,5.1a2.711,2.711,0,0,1-1.366.37c-.019,0-.038,0-.057,0l-25.578,1.6-1.354-2.5a2.714,2.714,0,1,0-1.593.865l.953,1.759-.757.047-.648.04a4.537,4.537,0,0,1-4.506-4.532Zm4.532.906a.906.906,0,1,1,.906-.906A.906.906,0,0,1,29.6,52.259Zm0,5.439c.019,0,.037,0,.056,0l.249-.016-7.166,6.585a2.725,2.725,0,0,0-1.559-1.051l6.447-5.832A6.319,6.319,0,0,0,29.6,57.7Zm-8.158,9.971a.908.908,0,0,1-.906.906H18.719a.907.907,0,0,1-.906-.906V65.856a.908.908,0,0,1,.906-.906h1.813a.907.907,0,0,1,.906.906Zm2.246-1.813L32.19,58.04l.929,1.714-.8.432a.906.906,0,1,0,.864,1.594l3.188-1.728a.906.906,0,1,0-.864-1.594l-.8.432-.792-1.461,15.093-.943A10.88,10.88,0,0,0,62.727,61.42l.987,2.764a2.7,2.7,0,0,0-.577,1.672Zm44.89,1.813a.908.908,0,0,1-.906.906H65.856a.908.908,0,0,1-.906-.906V65.856a.907.907,0,0,1,.906-.906h1.813a.907.907,0,0,1,.906.906Z" transform="translate(-16 -16)" fill="#121d55"/>
</svg>
