<svg xmlns="http://www.w3.org/2000/svg" width="28.041" height="33.648" viewBox="0 0 28.041 33.648">
  <g id="bin" transform="translate(-3.129 -2.159)">
    <path id="Path_18559" data-name="Path 18559" d="M29.484,13.315H12.029l8.293-8.293a.562.562,0,0,0,0-.8l-1.59-1.59a1.727,1.727,0,0,0-2.386,0L15.062,3.921l.8.8,1.285-1.284a.575.575,0,0,1,.8,0L19.13,4.624,5.611,18.143,4.419,16.95a.562.562,0,0,1,0-.8L14.733,5.841l-.8-.8-.772.772-.8-.8a1.688,1.688,0,0,0-2.386,0L6.009,9a1.689,1.689,0,0,0,0,2.386l.8.8L3.623,15.36a1.687,1.687,0,0,0,0,2.386l1.59,1.591a.567.567,0,0,0,.4.164.561.561,0,0,0,.4-.165L9,16.345,11.367,34.34a1.692,1.692,0,0,0,1.672,1.466H25.686a1.693,1.693,0,0,0,1.673-1.467L29.3,19.573l-1.115-.147L26.244,34.192a.565.565,0,0,1-.558.49H13.039a.564.564,0,0,1-.557-.489L10,15.343l.9-.9H28.843l-.36,2.738,1.115.147.444-3.374a.562.562,0,0,0-.558-.636ZM6.8,10.588a.563.563,0,0,1,0-.8L10.78,5.817a.564.564,0,0,1,.8,0l.8.8L7.6,11.383Z" fill="#121D55"/>
    <path id="Path_18560" data-name="Path 18560" d="M29,29.687v12.37a1.687,1.687,0,0,0,3.374,0V29.687a1.687,1.687,0,1,0-3.374,0Zm2.249,0v12.37a.562.562,0,0,1-1.125,0V29.687a.562.562,0,1,1,1.125,0Z" transform="translate(-11.324 -11.311)" fill="#121D55"/>
    <path id="Path_18561" data-name="Path 18561" d="M21,29.687v12.37a1.687,1.687,0,0,0,3.374,0V29.687a1.687,1.687,0,1,0-3.374,0Zm2.249,0v12.37a.562.562,0,0,1-1.125,0V29.687a.562.562,0,1,1,1.125,0Z" transform="translate(-7.823 -11.311)" fill="#121D55"/>
    <path id="Path_18562" data-name="Path 18562" d="M37,29.687v12.37a1.687,1.687,0,0,0,3.374,0V29.687a1.687,1.687,0,1,0-3.374,0Zm2.249,0v12.37a.562.562,0,0,1-1.125,0V29.687a.562.562,0,1,1,1.125,0Z" transform="translate(-14.826 -11.311)" fill="#121D55"/>
    <path id="Path_18563" data-name="Path 18563" d="M33.635,12.579l-2.249-.562a.562.562,0,0,0-.586.208l-1.687,2.249a.563.563,0,0,0,.2.841l2.249,1.125a.559.559,0,0,0,.251.059h2.811a.562.562,0,0,0,.522-.771l-1.125-2.811a.564.564,0,0,0-.386-.337Zm-1.691,2.795-1.528-.764L31.476,13.2l1.608.4.71,1.773Z" transform="translate(-11.325 -4.308)" fill="#121D55"/>
    <path id="Path_18564" data-name="Path 18564" d="M46.416,10.39l-.539-1.079a.563.563,0,0,0-.613-.3l-2.811.562a.561.561,0,0,0-.452.551v1.125a.561.561,0,0,0,.017.137l.562,2.249a.562.562,0,0,0,.545.426.492.492,0,0,0,.07,0l4.5-.562a.562.562,0,0,0,.38-.9Zm-2.867,2.489-.425-1.7v-.594l1.938-.387.37.741a.563.563,0,0,0,.053.086L46.592,12.5Z" transform="translate(-17.015 -2.995)" fill="#121D55"/>
  </g>
</svg>
