<svg xmlns="http://www.w3.org/2000/svg" width="31.695" height="23.404" viewBox="0 0 31.695 23.404">
  <path id="book-open-backwards" d="M30.594,66.917v-1.4a.325.325,0,0,0-.369-.322l-1.7.232V64.137a.325.325,0,0,0-.407-.314l-12.8,3.368A.323.323,0,0,0,15.1,67.1H1.133A1.134,1.134,0,0,0,0,68.235V86.084a1.134,1.134,0,0,0,1.133,1.133h29.43A1.134,1.134,0,0,0,31.7,86.084V68.048A1.133,1.133,0,0,0,30.594,66.917Zm-.65-1.028V84.539l-9.61,1.311,7.949-2.092a.325.325,0,0,0,.242-.314V66.082Zm-2.069,17.3L15.425,86.47V67.836l12.451-3.277ZM.65,86.084V68.235a.484.484,0,0,1,.483-.483H13.4V83.34a.325.325,0,0,0,.65,0V67.752h.729V86.567h-.733a.32.32,0,0,0,0-.038v-1.11a.325.325,0,0,0-.65,0v1.11a.318.318,0,0,0,0,.038H1.133A.484.484,0,0,1,.65,86.084Zm30.4,0a.484.484,0,0,1-.483.483H19.885l10.428-1.422a.325.325,0,0,0,.281-.322V67.566a.483.483,0,0,1,.452.482V86.084ZM17.089,71.77a.325.325,0,0,1,.226-.4l8.5-2.363a.325.325,0,0,1,.174.626L17.489,72a.324.324,0,0,1-.4-.226Zm7.78.2a.325.325,0,0,1-.226.4l-5.91,1.644a.325.325,0,0,1-.174-.626l5.91-1.644A.325.325,0,0,1,24.869,71.97Z" transform="translate(0 -63.812)" fill="#121D55"/>
</svg>
