<svg xmlns="http://www.w3.org/2000/svg" width="38.673" height="33.395" viewBox="0 0 38.673 33.395">
  <g id="dumbbell" transform="translate(0 -34.938)">
    <g id="Group_12315" data-name="Group 12315" transform="translate(0 34.938)">
      <path id="Path_18349" data-name="Path 18349" d="M38.106,60.125a.566.566,0,0,0,.566-.566v-1.1a1.952,1.952,0,0,0-1.885-2.009h-.917V55.294A1.475,1.475,0,0,0,34.4,53.821h-4.56a1.475,1.475,0,0,0-1.473,1.473v3.023a61.467,61.467,0,0,0-13.224,0V55.294a1.475,1.475,0,0,0-1.473-1.473h-.36a62.123,62.123,0,0,0,9.286-6.953l1.778,2.445a1.475,1.475,0,0,0,2.058.325l3.688-2.682h0a1.475,1.475,0,0,0,.325-2.058l-.683-.939.741-.539a1.952,1.952,0,0,0,.343-2.733l-3.075-4.227a1.952,1.952,0,0,0-2.706-.515l-.742.539-.683-.939a1.475,1.475,0,0,0-2.058-.325L17.893,37.9a1.475,1.475,0,0,0-.325,2.058L19.347,42.4A61.459,61.459,0,0,0,8.653,50.182l-1.308-1.8a2.276,2.276,0,0,0-3.174-.5L1.776,49.625a2.275,2.275,0,0,0-.5,3.174l.213.292-.741.539A1.953,1.953,0,0,0,.4,56.364l3.075,4.227a2.059,2.059,0,0,0,1.355.835V63.69A1.952,1.952,0,0,0,6.718,65.7h.917V66.86a1.475,1.475,0,0,0,1.473,1.473h4.56a1.475,1.475,0,0,0,1.473-1.473V63.837c1.61.187,3.42.305,5.279.342h.012a.567.567,0,0,0,.011-1.133c-1.874-.038-3.7-.158-5.3-.35v-3.24a60.238,60.238,0,0,1,13.224,0V62.7c-1.606.192-3.427.313-5.3.35a.567.567,0,0,0,.011,1.133h.012c1.859-.037,3.669-.155,5.279-.342V66.86a1.475,1.475,0,0,0,1.473,1.473H34.4a1.475,1.475,0,0,0,1.473-1.473V65.7h.917a1.952,1.952,0,0,0,1.885-2.009V62.2a.566.566,0,0,0-1.133,0V63.69a.832.832,0,0,1-.752.876h-.917V57.588h.917a.832.832,0,0,1,.752.875v1.1A.566.566,0,0,0,38.106,60.125ZM25.729,36.859a.832.832,0,0,1,1.123.266l3.075,4.227a.832.832,0,0,1-.093,1.15l-.741.539-4.1-5.644Zm-7.244,2.433a.345.345,0,0,1,.075-.475l3.688-2.682a.344.344,0,0,1,.475.075l5.787,7.957h0l1.016,1.4a.344.344,0,0,1-.075.475l-3.688,2.682a.342.342,0,0,1-.475-.075Zm1.533,4.033,1.906,2.62a60.2,60.2,0,0,1-10.694,7.778L9.324,51.1A60.226,60.226,0,0,1,20.018,43.326ZM4.833,58.463v1.8a.963.963,0,0,1-.439-.337L1.319,55.7a.826.826,0,0,1,.093-1.15l.741-.539,2.777,3.818A2.151,2.151,0,0,0,4.833,58.463Zm2.8,6.1H6.718a.832.832,0,0,1-.752-.876V58.463a.966.966,0,0,1,.195-.579.711.711,0,0,1,.557-.3h.917v6.979Zm0-9.272v1.161H6.718c-.046,0-.092,0-.137.006l-.024,0a1.806,1.806,0,0,0-.944.375l-3.422-4.7a1.141,1.141,0,0,1,.251-1.591L4.837,48.8a1.144,1.144,0,0,1,1.591.251l3.47,4.77h-.79A1.475,1.475,0,0,0,7.635,55.294ZM14.008,66.86a.344.344,0,0,1-.34.34H9.108a.344.344,0,0,1-.34-.34V55.294a.344.344,0,0,1,.34-.34h4.56a.344.344,0,0,1,.34.34Zm20.73,0a.344.344,0,0,1-.34.34h-4.56a.344.344,0,0,1-.34-.34V55.294a.344.344,0,0,1,.34-.34H34.4a.344.344,0,0,1,.34.34Z" transform="translate(0 -34.938)" fill="#121D55"/>
    </g>
  </g>
</svg>
