<svg xmlns="http://www.w3.org/2000/svg" width="25.626" height="25.617" viewBox="0 0 25.626 25.617">
  <path id="garage" d="M3.656,25.654H6.321a.5.5,0,0,0,.5-.5V22.921h11.99v2.237a.5.5,0,0,0,.5.5h2.665a.5.5,0,0,0,.5-.5V22.921h1.588a.5.5,0,0,0,.5-.5V16.185a2.6,2.6,0,0,0-2.084-2.544V12.3A4.773,4.773,0,0,0,17.7,7.529H7.927A4.773,4.773,0,0,0,3.16,12.3v1.345a2.6,2.6,0,0,0-2.084,2.544v6.239a.5.5,0,0,0,.5.5H3.16v2.237A.5.5,0,0,0,3.656,25.654Zm2.169-.993H4.153v-1.74H5.825Zm15.648,0H19.8v-1.74h1.672ZM3.656,21.928H2.068V16.185a1.6,1.6,0,0,1,1.6-1.6H21.956a1.6,1.6,0,0,1,1.6,1.6v5.742H3.656Zm2.67-8.337H4.153V12.3A3.779,3.779,0,0,1,7.927,8.522H17.7A3.779,3.779,0,0,1,21.473,12.3v1.295h-10.1a2.574,2.574,0,0,0-5.05,0Zm4.026,0h-3a1.581,1.581,0,0,1,3,0ZM4.989,20.617A1.829,1.829,0,1,0,3.16,18.788,1.831,1.831,0,0,0,4.989,20.617Zm0-2.665a.836.836,0,1,1-.836.836A.837.837,0,0,1,4.989,17.952ZM8.13,20.617H17.5a.5.5,0,1,0,0-.993H8.131a.5.5,0,0,0,0,.993Zm12.506,0a1.829,1.829,0,1,0-1.829-1.829A1.831,1.831,0,0,0,20.637,20.617Zm0-2.665a.836.836,0,1,1-.836.836A.837.837,0,0,1,20.637,17.952Zm-12.506,0H17.5a.5.5,0,1,0,0-.993H8.131a.5.5,0,0,0,0,.993ZM.5,6.243A.5.5,0,0,0,.69,6.2L12.813,1.073,24.936,6.2a.5.5,0,0,0,.387-.915L13.006.076a.5.5,0,0,0-.193-.039h0a.493.493,0,0,0-.179.034l-.016.007L.3,5.289A.5.5,0,0,0,.5,6.243Z" transform="translate(0 -0.037)" fill="#121D55"/>
</svg>
