<svg xmlns="http://www.w3.org/2000/svg" width="34.236" height="33.946" viewBox="0 0 34.236 33.946">
  <g id="hospital_s-lift" data-name="hospital&apos;s-lift" transform="translate(0 -1.498)">
    <g id="Layer_5_36_" transform="translate(0 1.498)">
      <g id="Group_12534" data-name="Group 12534" transform="translate(0 0)">
        <path id="Path_18539" data-name="Path 18539" d="M303.754,96.6h3.327a.753.753,0,0,0,.658-1.149l-1.662-2.828a.755.755,0,0,0-1.319,0l-1.661,2.83a.753.753,0,0,0,.658,1.149Z" transform="translate(-273.622 -83.444)" fill="#121D55"/>
        <path id="Path_18540" data-name="Path 18540" d="M307.834,168.863a.763.763,0,0,0-.676-.376l-3.327.029a.753.753,0,0,0-.647,1.155l1.686,2.815a.755.755,0,0,0,1.319-.011l1.637-2.843A.76.76,0,0,0,307.834,168.863Z" transform="translate(-273.698 -152.304)" fill="#121D55"/>
        <path id="Path_18541" data-name="Path 18541" d="M28.975,1.5H7.923A2.425,2.425,0,0,0,5.5,3.921V28.6a2.425,2.425,0,0,0,2.423,2.423H28.975A2.425,2.425,0,0,0,31.4,28.6V3.921A2.425,2.425,0,0,0,28.975,1.5ZM6.857,28.6V3.921A1.067,1.067,0,0,1,7.923,2.855h9.151a.647.647,0,0,1,.7.616V28.635s.2,1.033-1.012,1.033H7.923A1.067,1.067,0,0,1,6.857,28.6Zm23.185,0a1.067,1.067,0,0,1-1.066,1.066H20.054a.862.862,0,0,1-.926-.984V3.423s-.019-.568.66-.568h9.188a1.067,1.067,0,0,1,1.066,1.066Z" transform="translate(-4.967 -1.498)" fill="#121D55"/>
        <g id="Group_12533" data-name="Group 12533" transform="translate(0 31.523)">
          <path id="Path_18542" data-name="Path 18542" d="M25.753,329.2H1.211a1.211,1.211,0,1,1,0-2.423H25.753a1.211,1.211,0,0,1,0,2.423Z" transform="translate(0 -326.778)" fill="#121D55"/>
        </g>
      </g>
    </g>
  </g>
</svg>
