<svg xmlns="http://www.w3.org/2000/svg" width="33.358" height="30.088" viewBox="0 0 33.358 30.088">
  <g id="interview" transform="translate(-1.995 -5.428)">
    <path id="Path_18524" data-name="Path 18524" d="M68.326,45.368a.476.476,0,0,1-.465-.375l-.31-1.415a.477.477,0,0,1,.931-.2l.31,1.415a.476.476,0,0,1-.364.567.468.468,0,0,1-.1.011Z" transform="translate(-34.313 -19.669)" fill="#121D55"/>
    <path id="Path_18525" data-name="Path 18525" d="M64.772,56.467H62.866a.476.476,0,1,1,0-.953h1.906a1.245,1.245,0,0,0,1.216-1.509l-.1-.457a.477.477,0,0,1,.931-.2l.1.457a2.2,2.2,0,0,1-2.147,2.666Z" transform="translate(-31.617 -24.888)" fill="#121D55"/>
    <path id="Path_18526" data-name="Path 18526" d="M6.1,44.783H4.194a2.2,2.2,0,0,1-2.149-2.665l2.02-9.286A2.784,2.784,0,0,1,6.772,30.65H30.578a2.784,2.784,0,0,1,2.705,2.181l.163.743a.477.477,0,1,1-.932.2l-.162-.743A1.825,1.825,0,0,0,30.579,31.6H6.772A1.825,1.825,0,0,0,5,33.034l-2.02,9.287A1.245,1.245,0,0,0,4.194,43.83H6.1a.476.476,0,1,1,0,.953Z" transform="translate(0 -13.204)" fill="#121D55"/>
    <path id="Path_18527" data-name="Path 18527" d="M36.213,59.267H30.866a.476.476,0,1,1,0-.953h5.346a.476.476,0,0,1,0,.953Z" transform="translate(-14.865 -27.686)" fill="#121D55"/>
    <path id="Path_18528" data-name="Path 18528" d="M51.935,61.265H40.954a.476.476,0,0,1-.476-.476V58.773a4.164,4.164,0,0,1,4.159-4.159h3.619a4.164,4.164,0,0,1,4.159,4.159v2.016a.476.476,0,0,1-.479.476Zm-10.5-.953H51.458V58.773a3.209,3.209,0,0,0-3.2-3.206H44.638a3.209,3.209,0,0,0-3.206,3.206Z" transform="translate(-20.145 -25.749)" fill="#121D55"/>
    <path id="Path_18529" data-name="Path 18529" d="M49.047,48.681a3.6,3.6,0,1,1,3.6-3.6A3.6,3.6,0,0,1,49.047,48.681Zm0-6.242a2.645,2.645,0,1,0,2.646,2.646,2.645,2.645,0,0,0-2.646-2.646Z" transform="translate(-22.748 -18.876)" fill="#121D55"/>
    <path id="Path_18530" data-name="Path 18530" d="M35.935,25.209H24.953a.476.476,0,0,1-.476-.476V22.717a4.164,4.164,0,0,1,4.159-4.159h3.619a4.164,4.164,0,0,1,4.159,4.159v2.016a.476.476,0,0,1-.479.476Zm-10.5-.953H35.458V22.717a3.209,3.209,0,0,0-3.2-3.206H28.638a3.209,3.209,0,0,0-3.206,3.206Z" transform="translate(-11.769 -6.874)" fill="#121D55"/>
    <path id="Path_18531" data-name="Path 18531" d="M33.047,12.625a3.6,3.6,0,1,1,3.6-3.6A3.6,3.6,0,0,1,33.047,12.625Zm0-6.242a2.645,2.645,0,1,0,2.646,2.646,2.645,2.645,0,0,0-2.646-2.646Z" transform="translate(-14.372)" fill="#121D55"/>
    <path id="Path_18532" data-name="Path 18532" d="M19.935,61.265H8.953a.476.476,0,0,1-.476-.476V58.773a4.164,4.164,0,0,1,4.156-4.159h3.621a4.164,4.164,0,0,1,4.159,4.159v2.016a.476.476,0,0,1-.479.476Zm-10.5-.953H19.458V58.773a3.209,3.209,0,0,0-3.2-3.206H12.633a3.209,3.209,0,0,0-3.206,3.206Z" transform="translate(-3.393 -25.749)" fill="#121D55"/>
    <path id="Path_18533" data-name="Path 18533" d="M17.047,48.681a3.6,3.6,0,1,1,3.6-3.6A3.6,3.6,0,0,1,17.047,48.681Zm0-6.242a2.645,2.645,0,1,0,2.646,2.646,2.645,2.645,0,0,0-2.646-2.646Z" transform="translate(-5.996 -18.876)" fill="#121D55"/>
  </g>
</svg>
