<svg xmlns="http://www.w3.org/2000/svg" width="25.906" height="25.4" viewBox="0 0 25.906 25.4">
  <g id="microphone" transform="translate(0 -0.001)">
    <path id="Path_18519" data-name="Path 18519" d="M224.595,216.382a.51.51,0,0,0-.722,0l-2.5,2.5a.51.51,0,1,0,.721.722l2.5-2.5A.51.51,0,0,0,224.595,216.382Zm0,0" transform="translate(-210.032 -205.29)" fill="#121D55"/>
    <path id="Path_18520" data-name="Path 18520" d="M324.49,281.728a4.914,4.914,0,0,0-2.681-.9.51.51,0,0,0-.51.51V286.8a3.116,3.116,0,0,0-1.861-.6,2.551,2.551,0,1,0,2.882,2.529v-6.836c1.24.227,2.616,1.207,2.616,2.207v1.953a.51.51,0,1,0,1.02,0V284.1A2.985,2.985,0,0,0,324.49,281.728Zm-5.052,8.51a1.542,1.542,0,1,1,1.861-1.509A1.716,1.716,0,0,1,319.438,290.238Zm0,0" transform="translate(-300.538 -266.614)" fill="#121D55"/>
    <path id="Path_18521" data-name="Path 18521" d="M3.431,11.427A2.1,2.1,0,0,0,5.643,9.468c0-.03,0-.06,0-.09a.478.478,0,0,0,0-.051v-4.3A.991.991,0,0,0,5.79,5l5.525-1.47V5.287a2.409,2.409,0,0,0-1.192-.31A2.1,2.1,0,0,0,7.912,6.935a2.1,2.1,0,0,0,2.212,1.959,2.1,2.1,0,0,0,2.212-1.959V.953a.954.954,0,0,0-.361-.768.925.925,0,0,0-.808-.15l-5.639,1.5h0a1.267,1.267,0,0,0-.9,1.2V7.819a2.41,2.41,0,0,0-1.192-.31A2.1,2.1,0,0,0,1.219,9.468,2.1,2.1,0,0,0,3.431,11.427Zm6.693-3.554a1.089,1.089,0,0,1-1.192-.938A1.089,1.089,0,0,1,10.124,6a1.089,1.089,0,0,1,1.192.937A1.089,1.089,0,0,1,10.124,7.873ZM5.643,2.733a.263.263,0,0,1,.147-.212l5.525-1.469V2.307a.267.267,0,0,1-.149.21L5.643,3.987ZM3.431,8.53a1.1,1.1,0,0,1,1.192.939,1.1,1.1,0,0,1-1.192.939,1.1,1.1,0,0,1-1.192-.939A1.1,1.1,0,0,1,3.431,8.53Zm0,0" transform="translate(-1.157)" fill="#121D55"/>
    <path id="Path_18522" data-name="Path 18522" d="M19.357,11.842a5.956,5.956,0,0,0,3.568-.757,1.742,1.742,0,0,0,.555.091,1.731,1.731,0,0,0,1.639-2.282,5.937,5.937,0,0,0-8.107-8.1,1.73,1.73,0,0,0-2.192,2.191,5.957,5.957,0,0,0-.757,3.567c.019.18.046.359.081.536L2.893,18.925a1.989,1.989,0,0,0,.009,2.79l.445.445A3.082,3.082,0,0,1,.493,24.384.51.51,0,0,0,.51,25.4H.525a4.741,4.741,0,0,0,1.718-.443,3.744,3.744,0,0,0,1.914-1.993L4.185,23a1.952,1.952,0,0,0,1.388.577,2.032,2.032,0,0,0,1.4-.568l4.35-4.142a.51.51,0,0,0-.7-.739l-4.35,4.141a.972.972,0,0,1-1.366.009L3.624,20.994a.974.974,0,0,1,.009-1.366L14.484,8.209A5.916,5.916,0,0,0,17.7,11.421l-3.121,2.963-.009.008L13.955,15a.51.51,0,1,0,.72.723l.608-.6,3.538-3.359C19,11.8,19.176,11.824,19.357,11.842Zm4.089-9.379a4.948,4.948,0,0,1,1,5.505l-6.509-6.5A4.956,4.956,0,0,1,23.445,2.463Zm-7.49-.534a.711.711,0,0,1,1,0l7.023,7.018a.711.711,0,0,1,0,1,.712.712,0,0,1-1,0L15.956,2.931a.711.711,0,0,1,0-1Zm-.465,1.98L22,10.414a4.915,4.915,0,0,1-6.508-6.5Zm0,0" transform="translate(0 -0.003)" fill="#121D55"/>
    <path id="Path_18523" data-name="Path 18523" d="M240.521,324.364a.51.51,0,0,0-.719.065l-.007.008a.51.51,0,1,0,.784.653l.007-.009A.51.51,0,0,0,240.521,324.364Zm0,0" transform="translate(-227.55 -307.838)" fill="#121D55"/>
  </g>
</svg>
