<svg xmlns="http://www.w3.org/2000/svg" width="27.423" height="27.422" viewBox="0 0 27.423 27.422">
  <g id="_007---Pipe" data-name="007---Pipe" transform="translate(27.423) rotate(90)">
    <path id="Shape" d="M26.509,24.765V9.141a8.227,8.227,0,0,0-16.454,0v1a1.371,1.371,0,0,0-.914,1.287V16a1.371,1.371,0,0,0,.914,1.287v1a.914.914,0,1,1-1.828,0V2.658A1.368,1.368,0,0,0,7.77,0h-6.4A1.368,1.368,0,0,0,.915,2.658V18.282a8.227,8.227,0,1,0,16.454,0v-1A1.371,1.371,0,0,0,18.282,16v-4.57a1.371,1.371,0,0,0-.914-1.287v-1a.914.914,0,1,1,1.828,0V24.765a1.368,1.368,0,0,0,.457,2.658h6.4a1.368,1.368,0,0,0,.457-2.658ZM1.372.914h6.4a.457.457,0,0,1,0,.914h-6.4a.457.457,0,1,1,0-.914Zm7.77,24.681a7.321,7.321,0,0,1-7.313-7.313V2.742H7.313v15.54a1.828,1.828,0,1,0,3.656,0v-.914h5.485v.914A7.321,7.321,0,0,1,9.142,25.595ZM17.368,16a.457.457,0,0,1-.457.457h-6.4A.457.457,0,0,1,10.056,16v-4.57a.457.457,0,0,1,.457-.457h6.4a.457.457,0,0,1,.457.457Zm.914-8.684a1.828,1.828,0,0,0-1.828,1.828v.914H10.97V9.141a7.313,7.313,0,0,1,14.626,0v15.54H20.111V9.141A1.828,1.828,0,0,0,18.282,7.313Zm7.77,19.2h-6.4a.457.457,0,0,1,0-.914h6.4a.457.457,0,1,1,0,.914Z" transform="translate(-0.001 0)" fill="#121D55"/>
    <path id="Shape-2" data-name="Shape" d="M6.457,8A.457.457,0,0,0,6,8.457v.914a.457.457,0,0,0,.914,0V8.457A.457.457,0,0,0,6.457,8Z" transform="translate(-3.258 -4.344)" fill="#121D55"/>
    <path id="Shape-3" data-name="Shape" d="M6.457,14A.457.457,0,0,0,6,14.457v6.4a.457.457,0,0,0,.914,0v-6.4A.457.457,0,0,0,6.457,14Z" transform="translate(-3.258 -7.601)" fill="#121D55"/>
  </g>
</svg>
