<svg xmlns="http://www.w3.org/2000/svg" width="16.903" height="28.979" viewBox="0 0 16.903 28.979">
  <path id="plug" d="M86.98,8.969H81.993V2.31a1.03,1.03,0,0,1,1.029-1.029h.034A1.03,1.03,0,0,1,84.085,2.31V7.388a.64.64,0,1,0,1.281,0V2.31A2.312,2.312,0,0,0,83.056,0h-.034a2.312,2.312,0,0,0-2.31,2.31V8.969H77.625V2.31A2.312,2.312,0,0,0,75.315,0h-.034a2.312,2.312,0,0,0-2.31,2.31V8.969H71.357a.64.64,0,0,0-.64.64v4.208a8.388,8.388,0,0,0,6.2,8.087v6.434a.64.64,0,1,0,1.281,0v-6.2a8.418,8.418,0,0,0,.891.047h.156a8.421,8.421,0,0,0,.891-.047v6.2a.64.64,0,1,0,1.281,0V21.9a8.388,8.388,0,0,0,6.2-8.087V9.609A.64.64,0,0,0,86.98,8.969ZM74.252,2.31a1.03,1.03,0,0,1,1.029-1.029h.034A1.03,1.03,0,0,1,76.344,2.31V8.969H74.252ZM86.34,13.817a7.1,7.1,0,0,1-7.093,7.093h-.156A7.1,7.1,0,0,1,72,13.817V10.25H86.34Z" transform="translate(-70.717)" fill="#121D55"/>
</svg>
