<svg xmlns="http://www.w3.org/2000/svg" width="26.504" height="31.079" viewBox="0 0 26.504 31.079">
  <g id="secure-shield" transform="translate(-37.681 0)">
    <g id="Group_12545" data-name="Group 12545" transform="translate(37.681 0)">
      <g id="Group_12544" data-name="Group 12544">
        <path id="Path_18553" data-name="Path 18553" d="M63.7,5.366A51.7,51.7,0,0,1,51.266.091a.653.653,0,0,0-.665,0A50.282,50.282,0,0,1,38.162,5.366.654.654,0,0,0,37.681,6v6.68a19.217,19.217,0,0,0,5.836,14.04c2.866,2.808,6.2,4.361,7.417,4.361s4.551-1.553,7.417-4.361a19.217,19.217,0,0,0,5.835-14.04V6A.654.654,0,0,0,63.7,5.366Zm-.826,7.31a17.935,17.935,0,0,1-5.443,13.106c-2.818,2.762-5.832,3.988-6.5,3.988s-3.683-1.226-6.5-3.988a17.936,17.936,0,0,1-5.443-13.106V6.493A51.487,51.487,0,0,0,50.933,1.411,53.116,53.116,0,0,0,62.878,6.493Z" transform="translate(-37.681 0)" fill="#121D55"/>
        <path id="Path_18554" data-name="Path 18554" d="M85.2,99.357a.654.654,0,0,0-.848-.369c-1.168.46-2.367.884-3.563,1.259a.654.654,0,0,0-.458.624V103.4a.654.654,0,1,0,1.307,0v-2.047c1.073-.347,2.145-.731,3.193-1.144A.654.654,0,0,0,85.2,99.357Z" transform="translate(-77.738 -92.937)" fill="#121D55"/>
        <path id="Path_18555" data-name="Path 18555" d="M170.858,87.516a.654.654,0,0,0,.262-.055l.012-.005a.654.654,0,0,0-.528-1.2l-.011,0a.653.653,0,0,0,.264,1.252Z" transform="translate(-162.158 -80.972)" fill="#121D55"/>
        <path id="Path_18556" data-name="Path 18556" d="M308.247,345.635a.654.654,0,0,0-.9.19,15.913,15.913,0,0,1-1.879,2.347,16.7,16.7,0,0,1-1.875,1.668.654.654,0,1,0,.793,1.04,18.022,18.022,0,0,0,2.022-1.8,17.2,17.2,0,0,0,2.033-2.54A.654.654,0,0,0,308.247,345.635Z" transform="translate(-287.206 -324.554)" fill="#121D55"/>
        <path id="Path_18557" data-name="Path 18557" d="M276.927,432.056l-.038.022a.654.654,0,1,0,.655,1.131l.043-.025a.654.654,0,1,0-.661-1.128Z" transform="translate(-262.063 -405.745)" fill="#121D55"/>
        <path id="Path_18558" data-name="Path 18558" d="M126.449,159.42a2.126,2.126,0,1,0-3.006,3.007l3.86,3.86a2.126,2.126,0,0,0,3.006,0l8.059-8.059a2.126,2.126,0,0,0-3.007-3.006l-6.555,6.555Zm9.837-3.274a.818.818,0,1,1,1.157,1.157l-8.059,8.059a.819.819,0,0,1-1.158,0l-3.86-3.86a.818.818,0,0,1,1.157-1.157l2.819,2.819a.654.654,0,0,0,.924,0Z" transform="translate(-117.653 -145.215)" fill="#121D55"/>
      </g>
    </g>
  </g>
</svg>
