<svg xmlns="http://www.w3.org/2000/svg" width="32" height="32" viewBox="0 0 32 32">
  <g id="Group_12699" data-name="Group 12699" transform="translate(-280 -243)">
    <g id="Group_12537" data-name="Group 12537" transform="translate(280 253.667)">
      <g id="Group_12536" data-name="Group 12536">
        <path id="Path_18549" data-name="Path 18549" d="M19.733,168h-.587a.525.525,0,0,1-.494-.345c-.065-.171-.135-.338-.21-.5a.526.526,0,0,1,.107-.6l.418-.419a1.6,1.6,0,0,0,0-2.261l-1.507-1.507a1.6,1.6,0,0,0-2.261,0l-.418.418a.528.528,0,0,1-.6.107c-.165-.075-.332-.145-.5-.213a.524.524,0,0,1-.346-.495V161.6a1.6,1.6,0,0,0-1.6-1.6H9.6A1.6,1.6,0,0,0,8,161.6v.587a.525.525,0,0,1-.345.494c-.171.065-.338.135-.5.21a.527.527,0,0,1-.6-.107l-.419-.418a1.6,1.6,0,0,0-2.261,0l-1.507,1.512a1.6,1.6,0,0,0,0,2.261l.418.418a.526.526,0,0,1,.107.6c-.075.165-.145.332-.211.5a.524.524,0,0,1-.5.344H1.6A1.6,1.6,0,0,0,0,169.6v2.133a1.6,1.6,0,0,0,1.6,1.6h.587a.525.525,0,0,1,.494.345c.065.171.135.338.21.5a.526.526,0,0,1-.107.6l-.418.419a1.6,1.6,0,0,0,0,2.261l1.507,1.507a1.6,1.6,0,0,0,2.261,0l.418-.418a.528.528,0,0,1,.6-.107c.165.075.332.145.5.213a.524.524,0,0,1,.349.495v.587a1.6,1.6,0,0,0,1.6,1.6h2.133a1.6,1.6,0,0,0,1.6-1.6v-.587a.525.525,0,0,1,.345-.494c.171-.065.338-.135.5-.21a.527.527,0,0,1,.6.107l.419.418a1.6,1.6,0,0,0,2.261,0l1.507-1.507a1.6,1.6,0,0,0,0-2.261l-.418-.418a.526.526,0,0,1-.107-.6c.075-.165.145-.332.213-.5a.524.524,0,0,1,.495-.346h.587a1.6,1.6,0,0,0,1.6-1.6V169.6A1.6,1.6,0,0,0,19.733,168Zm.533,3.733a.533.533,0,0,1-.533.533h-.587a1.605,1.605,0,0,0-1.493,1.031q-.085.224-.183.441a1.6,1.6,0,0,0,.32,1.79l.417.418a.533.533,0,0,1,0,.754h0L16.7,178.209a.533.533,0,0,1-.754,0l-.418-.418a1.6,1.6,0,0,0-1.79-.32c-.145.066-.292.127-.44.183a1.6,1.6,0,0,0-1.031,1.492v.587a.533.533,0,0,1-.533.533H9.6a.533.533,0,0,1-.533-.533v-.587a1.605,1.605,0,0,0-1.031-1.493q-.224-.085-.441-.183a1.605,1.605,0,0,0-1.79.32l-.418.417a.533.533,0,0,1-.754,0h0L3.125,176.7a.533.533,0,0,1,0-.754l.418-.418a1.6,1.6,0,0,0,.32-1.79c-.066-.145-.127-.292-.183-.44a1.6,1.6,0,0,0-1.492-1.033H1.6a.533.533,0,0,1-.533-.533V169.6a.533.533,0,0,1,.533-.533h.587a1.605,1.605,0,0,0,1.493-1.031q.085-.224.183-.441a1.6,1.6,0,0,0-.32-1.79l-.419-.418a.533.533,0,0,1,0-.754h0l1.507-1.507a.533.533,0,0,1,.754,0l.418.418a1.6,1.6,0,0,0,1.79.32c.145-.066.292-.127.44-.183a1.6,1.6,0,0,0,1.033-1.492V161.6a.533.533,0,0,1,.533-.533h2.133a.533.533,0,0,1,.533.533v.587A1.605,1.605,0,0,0,13.3,163.68q.224.085.441.183a1.6,1.6,0,0,0,1.79-.32l.418-.417a.537.537,0,0,1,.755,0l1.507,1.507a.533.533,0,0,1,0,.754l-.418.418a1.6,1.6,0,0,0-.32,1.79c.066.145.127.292.183.44a1.6,1.6,0,0,0,1.492,1.031h.587a.533.533,0,0,1,.533.533v2.133Z" transform="translate(0 -160)" fill="#121D55"/>
      </g>
    </g>
    <g id="Group_12539" data-name="Group 12539" transform="translate(285.864 259.533)">
      <g id="Group_12538" data-name="Group 12538">
        <path id="Path_18550" data-name="Path 18550" d="M97.551,252.587c-.005-.128-.014-.255-.03-.382s-.037-.272-.066-.4c-.019-.087-.043-.173-.067-.259q-.045-.165-.1-.325c-.026-.074-.053-.148-.081-.221a4.752,4.752,0,0,0-.235-.5c-.007-.012-.011-.026-.018-.038a4.729,4.729,0,0,0-.48-.7c-.015-.019-.033-.037-.049-.056-.074-.087-.149-.171-.229-.252-.042-.043-.085-.084-.129-.125s-.107-.1-.16-.146-.131-.111-.2-.163l-.087-.065a4.766,4.766,0,0,0-2.86-.951c-.053,0-.107.008-.16.01-.114,0-.228.01-.342.021-.06.006-.121.013-.181.022a4.893,4.893,0,0,0-.517.1,4.8,4.8,0,0,0,0,9.3.12.12,0,0,1,.027,0,5.085,5.085,0,0,0,.559.107c.124.015.249.019.373.025.083,0,.16.017.247.017.152,0,.31-.01.471-.026a.523.523,0,0,0,.053-.007c.13-.014.261-.034.395-.06.053-.01.1-.023.154-.035.094-.022.187-.045.283-.073.075-.022.147-.049.22-.074s.149-.053.225-.082.139-.062.208-.094c.09-.041.179-.082.267-.13h0a6.313,6.313,0,0,0,1.367-.987,1.679,1.679,0,0,0,.286-.35,5.693,5.693,0,0,0,.8-2.192c.015-.1.028-.206.036-.311s.013-.193.015-.289c0-.03,0-.059,0-.09C97.561,252.729,97.554,252.659,97.551,252.587Zm-1.063.349c0,.044,0,.089-.006.132-.01.129-.026.258-.048.388a3.741,3.741,0,0,1-1.874,2.613c-.066.035-.131.067-.2.1l-.044.021a3.851,3.851,0,0,1-.973.294l-.071.011c-.067.01-.132.018-.2.023-.086.007-.172.012-.26.013h-.111a3.753,3.753,0,0,1-.378-.023l-.064-.007a3.948,3.948,0,0,1-.436-.082,3.733,3.733,0,0,1,0-7.233h0a3.862,3.862,0,0,1,.937-.117,3.684,3.684,0,0,1,.456.031c.041,0,.081.012.121.018.115.018.229.041.342.07l.11.028a3.765,3.765,0,0,1,.813.342c.041.024.081.049.122.074.084.053.166.107.246.167.043.031.087.062.129.1a3.841,3.841,0,0,1,.3.267c.038.038.073.081.109.121.061.067.121.135.178.207.039.05.077.1.115.153.053.077.107.157.155.238l.081.133a3.656,3.656,0,0,1,.183.391c.021.053.039.107.059.16.035.1.065.2.091.3.013.053.028.1.039.153a3.761,3.761,0,0,1,.068.437c0,.039,0,.078.006.117C96.49,252.689,96.492,252.812,96.488,252.936Z" transform="translate(-87.959 -248)" fill="#121D55"/>
      </g>
    </g>
    <g id="Group_12541" data-name="Group 12541" transform="translate(285.817 243)">
      <g id="Group_12540" data-name="Group 12540">
        <path id="Path_18551" data-name="Path 18551" d="M111.844,11.2h-1.677a.521.521,0,0,1-.5-.35,11.108,11.108,0,0,0-.6-1.446.522.522,0,0,1,.1-.6l1.189-1.191a1.6,1.6,0,0,0,0-2.262l-2.268-2.264a1.6,1.6,0,0,0-2.262,0l-1.189,1.188a.522.522,0,0,1-.6.1,11.081,11.081,0,0,0-1.446-.6.521.521,0,0,1-.352-.5V1.6a1.6,1.6,0,0,0-1.6-1.6h-3.2a1.6,1.6,0,0,0-1.6,1.6V3.277a.52.52,0,0,1-.35.5,11.114,11.114,0,0,0-1.446.6.521.521,0,0,1-.6-.1L92.255,3.084a1.6,1.6,0,0,0-2.262,0L87.73,5.348a1.6,1.6,0,0,0,0,2.262l1.749,1.752a.533.533,0,0,0,.755-.753l-1.75-1.751a.533.533,0,0,1,0-.754L90.747,3.84a.533.533,0,0,1,.754,0l1.191,1.189a1.586,1.586,0,0,0,1.833.3,10.091,10.091,0,0,1,1.307-.543A1.587,1.587,0,0,0,96.91,3.277V1.6a.533.533,0,0,1,.533-.533h3.2a.533.533,0,0,1,.533.533V3.277a1.586,1.586,0,0,0,1.078,1.509,10.059,10.059,0,0,1,1.308.544,1.589,1.589,0,0,0,1.832-.3l1.191-1.189a.533.533,0,0,1,.754,0L109.6,6.1a.533.533,0,0,1,0,.754l-1.189,1.191a1.587,1.587,0,0,0-.3,1.833,10.091,10.091,0,0,1,.543,1.307,1.586,1.586,0,0,0,1.509,1.078h1.677a.533.533,0,0,1,.533.533V16a.533.533,0,0,1-.533.533h-1.677a1.586,1.586,0,0,0-1.509,1.078,10.051,10.051,0,0,1-.544,1.308,1.588,1.588,0,0,0,.3,1.832l1.189,1.191a.533.533,0,0,1,0,.754L107.34,24.96a.533.533,0,0,1-.754,0l-1.753-1.749a.533.533,0,0,0-.766.742l.013.013,1.752,1.749a1.6,1.6,0,0,0,2.262,0l2.263-2.263a1.6,1.6,0,0,0,0-2.262L109.17,20a.523.523,0,0,1-.1-.6,11.081,11.081,0,0,0,.6-1.446.521.521,0,0,1,.5-.352h1.677a1.6,1.6,0,0,0,1.6-1.6V12.8A1.6,1.6,0,0,0,111.844,11.2Z" transform="translate(-87.261)" fill="#121D55"/>
      </g>
    </g>
    <g id="Group_12543" data-name="Group 12543" transform="translate(292.548 250.47)">
      <g id="Group_12542" data-name="Group 12542">
        <path id="Path_18552" data-name="Path 18552" d="M198.173,114.077a6.94,6.94,0,0,0-9.8,0,.533.533,0,0,0,.754.754,5.867,5.867,0,1,1,8.352,8.241l-.056.056a.533.533,0,1,0,.741.767l.013-.013A6.94,6.94,0,0,0,198.173,114.077Z" transform="translate(-188.219 -112.049)" fill="#121D55"/>
      </g>
    </g>
  </g>
</svg>
