<svg xmlns="http://www.w3.org/2000/svg" width="35.975" height="30.393" viewBox="0 0 35.975 30.393">
  <g id="swimming-pool" transform="translate(0 -36)">
    <path id="Path_18516" data-name="Path 18516" d="M35.355,58.95a4.4,4.4,0,0,0-2.479.7,3.493,3.493,0,0,1-3.727,0,4.727,4.727,0,0,0-4.957,0,3.492,3.492,0,0,1-3.726,0,4.4,4.4,0,0,0-2.479-.7,4.4,4.4,0,0,0-2.479.7,3.219,3.219,0,0,1-1.863.539,3.219,3.219,0,0,1-1.863-.538,4.4,4.4,0,0,0-2.479-.7,5.39,5.39,0,0,0-.643.037V55.864h5.6v1.892a.62.62,0,0,0,1.241,0v-14.3a6.217,6.217,0,0,1,2.8-5.192,6.18,6.18,0,0,1,2.8,5.192.62.62,0,1,0,1.241,0,7.405,7.405,0,0,0-2.8-5.824,6.217,6.217,0,0,1,8.395,5.824.62.62,0,1,0,1.241,0,7.459,7.459,0,0,0-14.917,0v1.194H8.66V43.459a6.225,6.225,0,0,1,6.218-6.218c.143,0,.288,0,.431.015a.62.62,0,0,0,.085-1.238c-.171-.012-.344-.018-.515-.018A7.467,7.467,0,0,0,7.42,43.459V59.336c-.217.1-.41.211-.595.316a3.218,3.218,0,0,1-1.863.539A3.219,3.219,0,0,1,3.1,59.652a4.4,4.4,0,0,0-2.479-.7.62.62,0,0,0,0,1.241,3.219,3.219,0,0,1,1.863.539,4.4,4.4,0,0,0,2.479.7,4.4,4.4,0,0,0,2.479-.7A3.218,3.218,0,0,1,9.3,60.19a3.219,3.219,0,0,1,1.863.539,4.4,4.4,0,0,0,2.478.7,4.4,4.4,0,0,0,2.479-.7,3.492,3.492,0,0,1,3.726,0,4.727,4.727,0,0,0,4.957,0,3.493,3.493,0,0,1,3.727,0,4.728,4.728,0,0,0,4.958,0,3.22,3.22,0,0,1,1.863-.539.62.62,0,0,0,0-1.241ZM8.66,54.623V50.878h5.6v3.745Zm5.6-8.73v3.745H8.66V45.893Z" fill="#121D55"/>
    <path id="Path_18517" data-name="Path 18517" d="M82.668,365.241A3.22,3.22,0,0,1,80.8,364.7a4.727,4.727,0,0,0-4.957,0,3.492,3.492,0,0,1-3.726,0,4.727,4.727,0,0,0-4.957,0,3.492,3.492,0,0,1-3.726,0,4.727,4.727,0,0,0-4.957,0,3.219,3.219,0,0,1-1.863.539.62.62,0,0,0,0,1.241,4.4,4.4,0,0,0,2.479-.7,3.492,3.492,0,0,1,3.726,0,4.726,4.726,0,0,0,4.957,0,3.492,3.492,0,0,1,3.726,0,4.727,4.727,0,0,0,4.957,0,3.493,3.493,0,0,1,3.727,0,4.4,4.4,0,0,0,2.479.7.62.62,0,0,0,0-1.241Z" transform="translate(-51.655 -302.569)" fill="#121D55"/>
    <path id="Path_18518" data-name="Path 18518" d="M129.983,396a4.4,4.4,0,0,0-2.479.7,3.492,3.492,0,0,1-3.726,0,4.727,4.727,0,0,0-4.957,0,3.492,3.492,0,0,1-3.726,0,4.4,4.4,0,0,0-2.479-.7.62.62,0,0,0,0,1.241,3.219,3.219,0,0,1,1.863.539,4.726,4.726,0,0,0,4.957,0,3.492,3.492,0,0,1,3.726,0,4.727,4.727,0,0,0,4.957,0,3.219,3.219,0,0,1,1.863-.539.62.62,0,0,0,0-1.241Z" transform="translate(-103.313 -332.088)" fill="#121D55"/>
  </g>
</svg>
