<svg xmlns="http://www.w3.org/2000/svg" width="33.704" height="31.005" viewBox="0 0 33.704 31.005">
  <g id="team" transform="translate(0 -20.499)">
    <g id="Group_12523" data-name="Group 12523" transform="translate(13.174 20.499)">
      <g id="Group_12522" data-name="Group 12522" transform="translate(0 0)">
        <path id="Path_18534" data-name="Path 18534" d="M201.256,20.692a.66.66,0,1,0,.192.465A.665.665,0,0,0,201.256,20.692Z" transform="translate(-200.132 -20.499)" fill="#121D55"/>
      </g>
    </g>
    <g id="Group_12525" data-name="Group 12525" transform="translate(10.947 20.499)">
      <g id="Group_12524" data-name="Group 12524" transform="translate(0 0)">
        <path id="Path_18535" data-name="Path 18535" d="M178.581,31.448l-.545-2.766a5.741,5.741,0,0,0-1.585-2.965l-.933-.93v-3.63a.658.658,0,1,0-1.317,0v3.9a.658.658,0,0,0,.193.466l1.126,1.123a4.43,4.43,0,0,1,1.222,2.288l.545,2.766a.406.406,0,0,1-.793.175l-.282-1.149a.812.812,0,0,0-1.6.193v5.354a.383.383,0,0,1-.763.05v-2.8a.658.658,0,0,0-.658-.658h0a.658.658,0,0,0-.658.658v2.746c0,.036,0,.071,0,.107v.877a.383.383,0,1,1-.766,0v-.877c0-.035,0-.071,0-.106V33.531a.658.658,0,0,0-.658-.658h0a.658.658,0,0,0-.658.658v2.8a.383.383,0,0,1-.763-.05v-.982c0-.035,0-.071,0-.106V33.531a.658.658,0,0,0-.658-.658h0a.658.658,0,0,0-.658.658v1.707a.383.383,0,0,1-.763-.05V29.4a4.416,4.416,0,0,1,1.306-3.148l.728-.726a.658.658,0,0,0,.193-.466V23.5a.658.658,0,1,0-1.317,0v1.282l-.534.533a5.723,5.723,0,0,0-1.693,4.08v5.788a1.7,1.7,0,0,0,2.169,1.633,1.7,1.7,0,0,0,2.115,1.078,1.7,1.7,0,0,0,3.149,0,1.7,1.7,0,0,0,2.2-1.623V33.21a1.722,1.722,0,0,0,2.65-1.762Z" transform="translate(-166.293 -20.499)" fill="#121D55"/>
      </g>
    </g>
    <g id="Group_12527" data-name="Group 12527" transform="translate(0 37.894)">
      <g id="Group_12526" data-name="Group 12526" transform="translate(0)">
        <path id="Path_18536" data-name="Path 18536" d="M16.4,291.625a1.7,1.7,0,0,1-.1-2.345,1.693,1.693,0,0,0-.318-.4,1.7,1.7,0,0,0-1.575-2.728,1.7,1.7,0,0,0-2.509-1.1l-2.656,1.533a1.722,1.722,0,0,0-2.851-1.414L4.269,287.03a5.742,5.742,0,0,0-1.776,2.855l-.339,1.273L.33,292.211a.658.658,0,1,0,.658,1.14l2.061-1.19a.658.658,0,0,0,.307-.4l.409-1.537a4.43,4.43,0,0,1,1.37-2.2l2.122-1.855a.406.406,0,0,1,.578.045.407.407,0,0,1-.03.554l-.854.819a.812.812,0,0,0,.967,1.289l4.637-2.677a.382.382,0,0,1,.414.642l-2.41,1.392a.658.658,0,0,0-.241.9v0a.658.658,0,0,0,.9.241L13.6,288c.031-.018.061-.037.091-.056l.76-.438a.383.383,0,1,1,.383.664l-.76.439c-.032.016-.063.032-.094.05L11.6,290.03a.658.658,0,0,0-.241.9.673.673,0,0,0,.088.119.656.656,0,0,0,.813.125l2.421-1.4a.383.383,0,0,1,.338.686l-.85.491c-.032.016-.063.032-.094.05l-1.435.829a.658.658,0,0,0-.241.9.67.67,0,0,0,.573.332.655.655,0,0,0,.329-.088l1.479-.854a.382.382,0,0,1,.478.162.384.384,0,0,1-.14.524l-2.11,1.218L10.1,295.7a4.416,4.416,0,0,1-3.379.442l-.992-.267a.658.658,0,0,0-.5.066l-2.061,1.19a.658.658,0,1,0,.658,1.14l1.824-1.053.729.2a5.724,5.724,0,0,0,4.38-.573l1.662-.96h0l1.24-.716.113-.065,2-1.153A1.7,1.7,0,0,0,16.4,291.625Z" transform="translate(0 -284.749)" fill="#121D55"/>
      </g>
    </g>
    <g id="Group_12529" data-name="Group 12529" transform="translate(17.046 36.944)">
      <g id="Group_12528" data-name="Group 12528" transform="translate(0 0)">
        <path id="Path_18537" data-name="Path 18537" d="M275.275,278.728l-1.824-1.053-.194-.729a5.723,5.723,0,0,0-2.687-3.507l-2.9-1.676-2.11-1.218a4.782,4.782,0,0,1-3.272,1.087,5.245,5.245,0,0,1-2.924,2.1,1.7,1.7,0,0,1-.188,2.293,1.7,1.7,0,0,0,.622,2.322l2.656,1.533a1.722,1.722,0,0,0,.2,3.176l2.668.91a5.741,5.741,0,0,0,3.36.11l1.272-.343,1.824,1.053a.658.658,0,0,0,.658-1.14l-2.061-1.19a.658.658,0,0,0-.5-.066l-1.535.414a4.429,4.429,0,0,1-2.592-.085l-2.668-.911a.406.406,0,0,1-.25-.523.407.407,0,0,1,.5-.251l1.136.331a.812.812,0,0,0,.633-1.482l-4.637-2.677a.383.383,0,0,1,.092-.7.38.38,0,0,1,.245.016l2.422,1.4a.655.655,0,0,0,.812-.125.67.67,0,0,0,.089-.119.658.658,0,0,0-.241-.9L261.5,275.4c-.031-.018-.063-.034-.094-.05l-.759-.438a.383.383,0,1,1,.383-.664l.759.438c.03.02.06.039.091.057l2.378,1.373a.655.655,0,0,0,.813-.125.674.674,0,0,0,.089-.119.658.658,0,0,0-.241-.9l-2.41-1.392a.382.382,0,0,1,.414-.642l.85.491c.029.019.059.038.09.056l1.435.829a.655.655,0,0,0,.812-.125.682.682,0,0,0,.089-.119.658.658,0,0,0-.241-.9l-1.479-.854a.383.383,0,0,1,.425-.636l2,1.153.113.065,1.24.716h0l1.662.96a4.416,4.416,0,0,1,2.073,2.705l.265.993a.658.658,0,0,0,.307.4l2.061,1.19a.658.658,0,1,0,.658-1.14Z" transform="translate(-258.947 -270.316)" fill="#121D55"/>
      </g>
    </g>
  </g>
</svg>
