<svg xmlns="http://www.w3.org/2000/svg" width="39.544" height="35.857" viewBox="0 0 39.544 35.857">
  <g id="watering-can" transform="matrix(0.875, -0.485, 0.485, 0.875, -33.197, -44.149)">
    <path id="Path_18538" data-name="Path 18538" d="M25.869,74.387a6.6,6.6,0,0,0-1.533.181l-.072-1.824a.518.518,0,0,0-.518-.5H17.272v-2.83a.518.518,0,0,0-.518-.518,7.791,7.791,0,0,0-6.571,3.586l0,0a.515.515,0,0,0-.08.256l-.058,1.475H6.728L3.8,69.575l.231-.148a.518.518,0,1,0-.559-.873L.239,70.626A.518.518,0,1,0,.8,71.5l.194-.124L9.535,87.188l-.147,3.75a.518.518,0,0,0,.518.538H24.46a.518.518,0,0,0,.518-.538l-.135-3.444a6.594,6.594,0,1,0,1.026-13.108Zm0,12.152a5.6,5.6,0,0,1-1.068-.1l-.042-1.071a4.523,4.523,0,1,0-.34-8.667l-.042-1.072a5.558,5.558,0,1,1,1.492,10.912ZM22.307,89.4h1.574l.041,1.036H10.444l.041-1.036h9.75a.518.518,0,1,0,0-1.036H10.525l.169-4.312a.518.518,0,1,0-1.035-.041l-.045,1.141L1.867,70.815l1.064-.681L9.777,81.005l-.037.94a.518.518,0,0,0,.5.538h.021a.518.518,0,0,0,.517-.5l.341-8.7H23.248l.533,13.585s0,.008,0,.012l.058,1.49H22.307a.518.518,0,0,0,0,1.036Zm-6.07-19.451v2.293h-4.58A6.746,6.746,0,0,1,16.236,69.953Zm8.226,7.84a3.485,3.485,0,1,1,.254,6.477ZM10,75.255l-.154,3.92L7.38,75.255Z" transform="translate(0 0)" fill="#121D55"/>
  </g>
</svg>
